<?xml version="1.0" encoding="UTF-8"?>
<svg id="Layer_1" data-name="Layer 1" xmlns="http://www.w3.org/2000/svg" viewBox="0 0 2803.97 1857.47">
  <defs>
    <style>
      .cls-1 {
        fill: #fff;
      }

      .cls-2 {
        fill: #af1b65;
      }

      .cls-3 {
        fill: #33c5f3;
      }

      .cls-4 {
        fill: #a8004f;
      }

      .cls-5, .cls-6 {
        fill: #0d2a4b;
      }

      .cls-6 {
        font-family: DGAgnadeen-Extrabold, 'DG Agnadeen';
        font-size: 119.74px;
        font-weight: 700;
      }

      .cls-7 {
        fill: #1396c3;
      }
    </style>
  </defs>
  <path d="M2443.23,226.78c-7.97-45.67-40.02-83.36-83.66-98.36-27.16-9.34-57.96-9.75-89.05-1.2-34.49,9.49-68.93,29.51-102.39,59.5-33.46-29.98-67.9-50.01-102.39-59.5-31.1-8.55-61.89-8.14-89.05,1.2-43.63,15-75.69,52.69-83.66,98.36-9.76,55.96,16.27,113.45,71.42,157.73,38.06,30.56,74.02,53.45,105.76,73.64,37.26,23.71,69.44,44.19,96.37,70.9l1.24-1.25,.83,.19,1.05,1.06c26.93-26.72,59.11-47.19,96.37-70.9,31.73-20.19,67.7-43.08,105.76-73.64,55.15-44.28,81.18-101.77,71.42-157.73Z"/>
  <g>
    <path class="cls-3" d="M743.04,1392.13c-20.86-16.75-30.71-38.42-27.04-59.46,2.98-17.07,14.96-31.16,31.27-36.77,21.86-7.51,48.17,.55,72.32,22.12-1.21,1.13-2.45,2.33-3.76,3.58-9.76,9.36-21.9,20.99-29.33,18.43-3.53-1.22-5.88-5.77-6.97-13.5-.59-4.21-2.62-5.99-4.37-5.87-1.33,.08-2.9,1.34-2.95,4.61-.12,7.43-1.61,8.11-1.78,8.16-.51,.16-1.67-.53-3.39-2.95-2.87-4.05-6.66-9.83-8.29-12.32-1.05-1.6-2.94-2.18-4.41-1.34-1.21,.69-2.13,2.51-.74,5.35,1.23,2.5,5.32,9.05,7.06,11.85l.46,.73c.42,.67,.3,1.19,0,1.4-.26,.18-.72,.19-1.17-.39-1.37-1.76-6.12-9-7.91-11.73l-.36-.55c-1.05-1.6-2.94-2.18-4.41-1.34-1.21,.69-2.13,2.5-.74,5.35,1.38,2.82,7.45,12.1,9.13,14.53,.57,.82,.45,1.45,.19,1.64-.23,.17-.62-.03-.95-.49-1.53-2.11-6.76-9.97-8.29-12.31-1.05-1.6-2.94-2.18-4.41-1.34-1.21,.69-2.13,2.51-.74,5.35,1.34,2.73,7.65,12.37,9.16,14.57,.5,.73,.33,1.36,.06,1.55-.26,.19-.62-.11-.86-.44-1.52-2.08-6.81-10.06-8.29-12.31-1.05-1.6-2.94-2.18-4.41-1.34-1.21,.69-2.13,2.5-.74,5.35,1.43,2.91,5.2,9.25,9.75,14.79,14.21,17.31,34.95,24.24,58.39,19.5,27.47-5.55,52.42-26.42,59.33-49.63,1.05-3.53,2.45-4.52,2.97-4.45,.37,.05,.93,.85,.96,2.85,.1,6.07,1.05,9.17,2.99,9.77,2.01,.62,3.99-1.75,5.3-3.6,2.86-4.02,6.65-9.8,8.26-12.27l.07-.1c.6-.91,1.55-1.12,2.12-.79,.74,.42,.76,1.64,.05,3.1-1.19,2.43-5.25,8.94-6.99,11.71l-.45,.72c-.96,1.55-.49,3.04,.48,3.72,.94,.66,2.44,.61,3.5-.74,1.44-1.84,6.08-8.93,8.06-11.96l.29-.44c.6-.91,1.55-1.12,2.12-.79,.74,.43,.76,1.64,.05,3.1-1.29,2.63-7.23,11.75-8.99,14.31-1.17,1.68-.75,3.32,.23,4.02,.85,.61,2.26,.59,3.33-.89,1.59-2.2,6.93-10.24,8.33-12.38,.6-.91,1.55-1.12,2.12-.79,.74,.42,.76,1.64,.05,3.1-1.3,2.65-7.54,12.17-9.04,14.35-1.06,1.54-.65,3.2,.36,3.92,.84,.59,2.21,.59,3.24-.83,1.55-2.13,6.86-10.13,8.33-12.38,.6-.91,1.55-1.12,2.12-.79,.74,.42,.76,1.64,.05,3.1l-.29,.59c-1.49,3.08-4.6,9.48-10.38,15.53-3.19,3.34-8.23,6.9-14.06,11.03-19.2,13.6-48.09,34.06-58.66,78.56-10.34-9.97-22.51-17.73-36.54-26.66-12.25-7.8-26.14-16.64-40.81-28.41Z"/>
    <path class="cls-7" d="M898.09,1392.66c-14.67,11.78-28.55,20.61-40.81,28.41-13.54,8.61-25.35,16.13-35.45,25.61,10.71-42.87,38.86-62.81,57.63-76.11,5.9-4.18,11-7.79,14.3-11.25,5.97-6.24,9.16-12.81,10.69-15.97l.28-.58c1.39-2.84,.47-4.66-.74-5.35-1.46-.84-3.36-.26-4.41,1.34-1.77,2.7-6.86,10.35-8.29,12.31-.24,.34-.6,.63-.86,.44-.27-.19-.44-.82,.06-1.55,1.51-2.2,7.83-11.85,9.16-14.57,1.39-2.84,.47-4.66-.74-5.35-1.46-.83-3.36-.26-4.41,1.34-1.74,2.66-6.8,10.26-8.29,12.31-.33,.46-.72,.66-.95,.49-.27-.19-.38-.82,.19-1.65,1.67-2.43,7.74-11.7,9.12-14.53,1.39-2.84,.47-4.66-.74-5.35-1.46-.84-3.36-.26-4.41,1.34l-.29,.44c-1.8,2.75-6.59,10.06-7.98,11.84-.45,.58-.91,.57-1.17,.39-.3-.21-.42-.73,0-1.4l.45-.72c1.75-2.8,5.84-9.36,7.07-11.87,1.39-2.84,.47-4.66-.74-5.35-1.46-.83-3.36-.26-4.41,1.34l-.07,.1c-1.61,2.46-5.39,8.22-8.23,12.21-1.72,2.42-2.88,3.11-3.39,2.95-.17-.05-1.66-.73-1.78-8.16-.06-3.79-1.73-4.42-2.44-4.52-1.87-.26-3.73,1.91-4.85,5.66-6.73,22.64-31.13,43.01-58.02,48.44-22.79,4.6-42.93-2.11-56.73-18.91-4.46-5.43-8.14-11.62-9.54-14.45-.72-1.46-.7-2.68,.05-3.1,.57-.33,1.53-.12,2.12,.79,1.48,2.26,6.8,10.27,8.33,12.38,1.03,1.42,2.4,1.42,3.24,.83,1.01-.71,1.42-2.38,.36-3.92-1.5-2.18-7.73-11.7-9.04-14.35-.72-1.46-.7-2.68,.05-3.1,.57-.33,1.53-.12,2.12,.79,1.54,2.35,6.79,10.25,8.33,12.38,1.07,1.48,2.48,1.49,3.33,.89,.98-.7,1.4-2.34,.23-4.02-1.77-2.56-7.7-11.68-9-14.31-.72-1.46-.7-2.68,.05-3.1,.57-.33,1.53-.12,2.12,.79l.36,.55c1.97,3,6.57,10.04,7.99,11.85,1.06,1.35,2.56,1.4,3.5,.74,.97-.68,1.44-2.17,.48-3.72l-.46-.74c-1.73-2.77-5.79-9.27-6.98-11.7-.72-1.46-.7-2.68,.05-3.1,.57-.33,1.53-.12,2.13,.8,1.62,2.48,5.43,8.29,8.32,12.36,1.31,1.84,3.29,4.22,5.3,3.6,1.94-.6,2.89-3.71,2.99-9.77,.03-1.95,.72-2.88,1.34-2.92,.8-.05,2.12,1.28,2.56,4.4,1.21,8.54,3.86,13.41,8.11,14.88,8.42,2.92,20.46-8.63,31.08-18.81,1.55-1.49,3.01-2.89,4.42-4.2h0c24.33-22.03,50.94-30.32,73.01-22.74,16.31,5.61,28.29,19.69,31.27,36.77,3.67,21.04-6.19,42.71-27.04,59.46Z"/>
  </g>
  <g>
    <path class="cls-3" d="M169.14,1039.54c-60.3-48.42-88.79-111.07-78.18-171.89,8.61-49.35,43.25-90.08,90.39-106.29,63.19-21.72,139.27,1.6,209.06,63.95-3.49,3.28-7.08,6.72-10.86,10.35-28.2,27.04-63.31,60.69-84.79,53.27-10.22-3.53-17-16.67-20.16-39.03-1.72-12.17-7.59-17.31-12.63-16.98-3.84,.24-8.37,3.87-8.52,13.32-.34,21.49-4.66,23.45-5.15,23.6-1.49,.46-4.84-1.54-9.81-8.54-8.31-11.69-19.27-28.43-23.97-35.61-3.03-4.63-8.51-6.29-12.74-3.88-3.5,2-6.16,7.24-2.13,15.46,3.55,7.24,15.37,26.17,20.42,34.26l1.33,2.12c1.21,1.95,.87,3.44-.01,4.06-.74,.52-2.07,.54-3.38-1.13-3.97-5.08-17.69-26.03-22.86-33.92l-1.05-1.6c-3.03-4.62-8.51-6.29-12.74-3.88-3.5,1.99-6.16,7.24-2.13,15.46,4,8.16,21.54,34.98,26.38,42.01,1.65,2.37,1.31,4.2,.54,4.74-.68,.48-1.78-.1-2.75-1.43-4.42-6.1-19.53-28.83-23.96-35.59-3.03-4.63-8.51-6.29-12.74-3.88-3.5,2-6.16,7.24-2.13,15.46,3.87,7.88,22.12,35.76,26.49,42.12,1.45,2.11,.96,3.92,.18,4.48-.76,.54-1.79-.3-2.5-1.27-4.39-6.02-19.69-29.08-23.96-35.58-3.03-4.62-8.51-6.3-12.74-3.88-3.5,2-6.16,7.24-2.13,15.46,4.12,8.41,15.03,26.73,28.19,42.75,41.09,50.04,101.04,70.06,168.8,56.38,79.43-16.04,151.55-76.38,171.51-143.48,3.03-10.2,7.09-13.05,8.58-12.87,1.07,.15,2.69,2.46,2.78,8.23,.28,17.54,3.02,26.51,8.64,28.26,5.82,1.8,11.54-5.07,15.32-10.4,8.27-11.63,19.21-28.33,23.89-35.47l.19-.29c1.73-2.64,4.48-3.23,6.14-2.29,2.15,1.23,2.21,4.75,.13,8.97-3.45,7.03-15.19,25.83-20.2,33.86l-1.3,2.08c-2.79,4.47-1.41,8.79,1.38,10.75,2.71,1.9,7.06,1.77,10.12-2.14,4.16-5.31,17.58-25.82,23.31-34.58l.84-1.28c1.73-2.64,4.48-3.23,6.14-2.29,2.15,1.23,2.2,4.75,.13,8.97-3.74,7.62-20.9,33.96-26,41.36-3.38,4.85-2.18,9.61,.66,11.62,2.47,1.76,6.54,1.7,9.63-2.57,4.6-6.35,20.04-29.59,24.09-35.78,1.73-2.64,4.48-3.23,6.14-2.29,2.15,1.23,2.21,4.75,.13,8.97-3.76,7.67-21.8,35.19-26.13,41.5-3.06,4.46-1.87,9.27,1.05,11.33,2.42,1.71,6.39,1.69,9.37-2.4,4.49-6.17,19.83-29.28,24.09-35.78,1.73-2.64,4.48-3.24,6.14-2.29,2.15,1.23,2.2,4.75,.13,8.97l-.83,1.71c-4.31,8.9-13.29,27.42-30.01,44.9-9.23,9.65-23.78,19.96-40.63,31.89-55.5,39.31-139.02,98.48-169.59,227.13-29.88-28.83-65.08-51.26-105.65-77.07-35.42-22.54-75.57-48.09-117.97-82.13Z"/>
    <path class="cls-7" d="M617.4,1041.06c-42.4,34.04-82.55,59.59-117.97,82.13-39.13,24.9-73.28,46.64-102.47,74.03,30.95-123.93,112.33-181.59,166.61-220.03,17.06-12.08,31.79-22.52,41.35-32.51,17.26-18.04,26.47-37.03,30.89-46.16l.82-1.69c4.03-8.22,1.37-13.46-2.13-15.46-4.23-2.41-9.71-.74-12.74,3.88-5.11,7.8-19.83,29.92-23.95,35.58-.71,.97-1.74,1.81-2.5,1.27-.79-.56-1.27-2.36,.18-4.48,4.37-6.37,22.63-34.24,26.49-42.12,4.03-8.22,1.37-13.47-2.13-15.46-4.23-2.41-9.71-.75-12.74,3.88-5.03,7.68-19.66,29.65-23.96,35.59-.97,1.33-2.07,1.91-2.74,1.43-.77-.54-1.11-2.38,.55-4.76,4.83-7.02,22.36-33.83,26.37-42,4.03-8.22,1.37-13.47-2.13-15.46-4.23-2.41-9.71-.75-12.74,3.88l-.84,1.28c-5.21,7.96-19.04,29.09-23.07,34.24-1.3,1.67-2.63,1.65-3.38,1.13-.88-.62-1.23-2.11-.01-4.06l1.3-2.08c5.05-8.09,16.89-27.05,20.45-34.3,4.03-8.22,1.37-13.46-2.13-15.46-4.23-2.41-9.71-.75-12.74,3.88l-.19,.29c-4.66,7.11-15.57,23.76-23.78,35.31-4.97,7-8.33,9-9.81,8.54-.49-.15-4.81-2.11-5.15-23.6-.17-10.94-5-12.79-7.07-13.07-5.42-.76-10.78,5.53-14.01,16.37-19.46,65.45-90,124.34-167.74,140.04-65.88,13.3-124.12-6.11-163.99-54.67-12.89-15.69-23.55-33.59-27.57-41.79-2.07-4.22-2.02-7.74,.13-8.97,1.66-.95,4.41-.35,6.14,2.29,4.28,6.53,19.66,29.7,24.1,35.78,2.98,4.09,6.94,4.12,9.37,2.4,2.92-2.07,4.11-6.87,1.05-11.33-4.33-6.3-22.36-33.82-26.13-41.5-2.07-4.22-2.02-7.74,.13-8.97,1.66-.94,4.41-.35,6.14,2.29,4.44,6.78,19.63,29.62,24.09,35.78,3.09,4.27,7.16,4.32,9.63,2.57,2.84-2.02,4.04-6.77,.67-11.61-5.1-7.41-22.27-33.76-26.01-41.37-2.07-4.23-2.02-7.75,.14-8.98,1.66-.94,4.41-.35,6.14,2.29l1.04,1.59c5.69,8.68,19,29.02,23.1,34.26,3.06,3.91,7.41,4.04,10.13,2.14,2.79-1.95,4.16-6.27,1.38-10.74l-1.33-2.13c-5.01-8.02-16.73-26.8-20.17-33.81-2.07-4.22-2.02-7.74,.13-8.97,1.66-.95,4.41-.35,6.16,2.32,4.69,7.17,15.69,23.95,24.05,35.73,3.79,5.33,9.5,12.2,15.33,10.4,5.61-1.74,8.36-10.72,8.64-28.26,.09-5.65,2.07-8.34,3.87-8.45,2.31-.13,6.14,3.71,7.41,12.72,3.49,24.7,11.16,38.77,23.45,43.03,24.35,8.43,59.14-24.94,89.84-54.38,4.48-4.29,8.71-8.35,12.77-12.14h0c70.34-63.7,147.28-87.66,211.08-65.73,47.15,16.21,81.78,56.93,90.39,106.29,10.61,60.82-17.88,123.47-78.18,171.89Z"/>
  </g>
  <g>
    <path class="cls-1" d="M97.23,346.19C24.28,287.61-10.2,211.8,2.63,138.22,13.05,78.5,54.96,29.22,112.01,9.61c76.46-26.28,168.51,1.94,252.96,77.37-4.22,3.97-8.57,8.14-13.14,12.52-34.13,32.72-76.6,73.44-102.59,64.46-12.37-4.28-20.57-20.17-24.39-47.23-2.08-14.72-9.18-20.94-15.28-20.54-4.64,.29-10.13,4.68-10.31,16.12-.41,26-5.64,28.37-6.23,28.55-1.8,.56-5.86-1.86-11.88-10.33-10.05-14.15-23.31-34.4-29-43.08-3.67-5.6-10.3-7.62-15.42-4.69-4.24,2.42-7.45,8.76-2.58,18.71,4.3,8.76,18.6,31.67,24.7,41.45l1.6,2.57c1.47,2.36,1.05,4.17-.02,4.91-.9,.63-2.51,.65-4.08-1.37-4.81-6.15-21.41-31.5-27.66-41.04l-1.26-1.93c-3.67-5.59-10.29-7.61-15.42-4.69-4.24,2.41-7.46,8.76-2.58,18.71,4.84,9.87,26.06,42.32,31.92,50.83,2,2.86,1.58,5.08,.65,5.74-.82,.58-2.15-.11-3.32-1.73-5.34-7.38-23.63-34.88-28.99-43.06-3.67-5.6-10.3-7.61-15.42-4.69-4.24,2.41-7.46,8.76-2.58,18.71,4.68,9.54,26.76,43.26,32.05,50.96,1.76,2.56,1.17,4.74,.21,5.42-.92,.66-2.16-.37-3.02-1.54-5.31-7.28-23.83-35.18-28.98-43.05-3.67-5.59-10.3-7.62-15.42-4.69-4.24,2.41-7.45,8.76-2.58,18.7,4.99,10.17,18.19,32.34,34.11,51.73,49.72,60.55,122.25,84.77,204.24,68.21,96.1-19.4,183.37-92.42,207.52-173.61,3.67-12.34,8.58-15.8,10.38-15.57,1.29,.18,3.26,2.98,3.37,9.96,.34,21.22,3.66,32.08,10.45,34.19,7.05,2.18,13.96-6.13,18.54-12.58,10-14.07,23.25-34.28,28.9-42.91l.23-.35c2.09-3.19,5.42-3.91,7.43-2.77,2.6,1.49,2.67,5.74,.16,10.85-4.17,8.5-18.38,31.26-24.44,40.97l-1.57,2.52c-3.37,5.41-1.71,10.64,1.67,13,3.28,2.3,8.55,2.15,12.25-2.59,5.03-6.43,21.27-31.24,28.2-41.84l1.01-1.55c2.09-3.19,5.42-3.91,7.43-2.77,2.6,1.49,2.67,5.75,.16,10.86-4.52,9.22-25.29,41.09-31.45,50.05-4.09,5.87-2.64,11.62,.8,14.06,2.99,2.12,7.91,2.06,11.65-3.11,5.57-7.68,24.25-35.81,29.15-43.29,2.09-3.19,5.42-3.91,7.43-2.77,2.6,1.48,2.67,5.75,.16,10.85-4.55,9.28-26.38,42.58-31.61,50.21-3.71,5.4-2.27,11.21,1.27,13.71,2.93,2.07,7.73,2.05,11.34-2.9,5.44-7.47,24-35.43,29.15-43.3,2.09-3.19,5.42-3.92,7.43-2.77,2.6,1.48,2.67,5.74,.16,10.85l-1.01,2.07c-5.22,10.77-16.08,33.17-36.31,54.32-11.17,11.68-28.78,24.15-49.17,38.59-67.15,47.56-168.21,119.16-205.19,274.81-36.16-34.88-78.75-62.02-127.83-93.25-42.86-27.27-91.44-58.19-142.74-99.38Z"/>
    <path class="cls-1" d="M639.6,348.04c-51.3,41.19-99.88,72.1-142.74,99.37-47.35,30.13-88.67,56.43-123.99,89.57,37.45-149.95,135.91-219.72,201.58-266.23,20.64-14.62,38.47-27.24,50.03-39.34,20.88-21.83,32.02-44.81,37.38-55.85l.99-2.04c4.88-9.94,1.66-16.29-2.58-18.7-5.12-2.92-11.75-.9-15.42,4.69-6.18,9.43-23.99,36.2-28.98,43.05-.85,1.17-2.1,2.19-3.02,1.54-.95-.67-1.54-2.86,.21-5.41,5.29-7.7,27.38-41.43,32.05-50.96,4.88-9.94,1.66-16.3-2.58-18.71-5.12-2.92-11.75-.9-15.41,4.69-6.09,9.29-23.79,35.88-28.99,43.06-1.17,1.61-2.5,2.31-3.32,1.73-.93-.66-1.34-2.88,.66-5.76,5.85-8.49,27.06-40.94,31.91-50.82,4.88-9.94,1.66-16.3-2.58-18.71-5.12-2.92-11.75-.9-15.42,4.69l-1.01,1.55c-6.3,9.63-23.04,35.2-27.91,41.42-1.58,2.02-3.19,2-4.08,1.37-1.07-.75-1.49-2.55-.02-4.91l1.57-2.51c6.11-9.79,20.43-32.73,24.74-41.5,4.88-9.95,1.66-16.29-2.58-18.71-5.12-2.92-11.75-.9-15.42,4.69l-.23,.36c-5.64,8.6-18.84,28.75-28.77,42.72-6.02,8.47-10.08,10.88-11.87,10.33-.59-.18-5.82-2.55-6.23-28.55-.21-13.24-6.05-15.47-8.55-15.81-6.55-.92-13.05,6.69-16.95,19.8-23.55,79.19-108.9,150.45-202.95,169.44-79.71,16.09-150.18-7.39-198.42-66.14-15.59-18.99-28.49-40.64-33.36-50.56-2.51-5.11-2.44-9.37,.16-10.85,2.01-1.14,5.34-.42,7.43,2.77,5.18,7.9,23.79,35.93,29.15,43.3,3.61,4.95,8.4,4.98,11.33,2.91,3.54-2.5,4.98-8.31,1.27-13.71-5.23-7.62-27.06-40.92-31.61-50.21-2.51-5.11-2.44-9.37,.16-10.85,2.01-1.14,5.34-.42,7.43,2.77,5.38,8.21,23.75,35.84,29.15,43.29,3.74,5.17,8.66,5.23,11.65,3.1,3.44-2.44,4.88-8.2,.8-14.05-6.18-8.97-26.95-40.85-31.47-50.06-2.5-5.11-2.44-9.37,.16-10.86,2.01-1.14,5.34-.42,7.43,2.77l1.26,1.93c6.88,10.51,22.99,35.11,27.95,41.45,3.7,4.73,8.97,4.89,12.25,2.59,3.38-2.36,5.04-7.59,1.67-13l-1.61-2.58c-6.06-9.7-20.24-32.43-24.41-40.91-2.51-5.11-2.44-9.37,.16-10.85,2.01-1.14,5.34-.42,7.46,2.81,5.68,8.67,18.98,28.98,29.1,43.23,4.59,6.45,11.5,14.76,18.54,12.58,6.79-2.11,10.11-12.97,10.45-34.19,.11-6.83,2.5-10.09,4.69-10.23,2.79-.16,7.43,4.49,8.97,15.39,4.22,29.88,13.5,46.91,28.37,52.06,29.46,10.2,71.56-30.18,108.7-65.8,5.42-5.2,10.53-10.1,15.45-14.69h0C454.54,13.91,547.63-15.08,624.82,11.46c57.04,19.61,98.95,68.89,109.37,128.6,12.84,73.59-21.64,149.39-94.59,207.97Z"/>
  </g>
  <g>
    <path class="cls-4" d="M2138.63,1055.95c-75.89-60.94-111.76-139.8-98.41-216.34,10.84-62.12,54.43-113.38,113.77-133.78,79.54-27.34,175.29,2.01,263.14,80.49-4.39,4.13-8.92,8.46-13.67,13.03-35.5,34.04-79.68,76.39-106.72,67.05-12.86-4.45-21.4-20.98-25.37-49.13-2.16-15.31-9.55-21.78-15.9-21.37-4.83,.3-10.54,4.87-10.73,16.77-.43,27.05-5.86,29.51-6.48,29.7-1.87,.58-6.09-1.94-12.35-10.74-10.46-14.72-24.25-35.78-30.17-44.82-3.81-5.82-10.71-7.92-16.04-4.88-4.41,2.52-7.75,9.12-2.68,19.46,4.47,9.11,19.35,32.94,25.7,43.12l1.67,2.67c1.53,2.45,1.09,4.34-.02,5.11-.93,.65-2.61,.67-4.25-1.42-5-6.39-22.27-32.77-28.77-42.69l-1.32-2.01c-3.81-5.82-10.71-7.92-16.04-4.88-4.41,2.51-7.76,9.11-2.68,19.46,5.04,10.27,27.11,44.02,33.2,52.88,2.08,2.98,1.65,5.29,.68,5.97-.85,.6-2.24-.12-3.46-1.8-5.56-7.67-24.58-36.28-30.15-44.79-3.82-5.82-10.71-7.92-16.04-4.88-4.41,2.51-7.76,9.12-2.68,19.46,4.87,9.92,27.84,45,33.34,53.01,1.83,2.66,1.21,4.93,.22,5.64-.96,.68-2.25-.38-3.14-1.6-5.52-7.57-24.79-36.6-30.15-44.78-3.82-5.82-10.71-7.92-16.04-4.88-4.41,2.51-7.75,9.11-2.68,19.46,5.19,10.58,18.92,33.64,35.48,53.81,51.72,62.98,127.17,88.19,212.47,70.96,99.97-20.19,190.75-96.14,215.87-180.59,3.82-12.84,8.93-16.43,10.8-16.2,1.35,.18,3.39,3.1,3.5,10.36,.35,22.07,3.8,33.37,10.87,35.57,7.33,2.27,14.52-6.38,19.29-13.09,10.41-14.64,24.18-35.66,30.07-44.64l.24-.37c2.18-3.32,5.64-4.07,7.73-2.88,2.71,1.54,2.78,5.98,.17,11.29-4.34,8.84-19.12,32.51-25.43,42.62l-1.63,2.62c-3.51,5.63-1.78,11.06,1.74,13.53,3.41,2.39,8.89,2.23,12.74-2.69,5.23-6.69,22.12-32.5,29.34-43.52l1.05-1.61c2.18-3.32,5.64-4.07,7.73-2.88,2.71,1.55,2.78,5.98,.17,11.29-4.71,9.59-26.31,42.75-32.72,52.06-4.25,6.1-2.75,12.09,.83,14.63,3.11,2.21,8.23,2.14,12.12-3.23,5.79-7.99,25.22-37.25,30.33-45.03,2.17-3.32,5.64-4.07,7.73-2.88,2.71,1.54,2.78,5.98,.17,11.29-4.73,9.65-27.44,44.3-32.88,52.23-3.86,5.62-2.36,11.66,1.32,14.26,3.05,2.15,8.04,2.13,11.79-3.02,5.65-7.77,24.96-36.86,30.33-45.04,2.18-3.32,5.64-4.07,7.73-2.88,2.71,1.54,2.78,5.97,.17,11.29l-1.05,2.15c-5.43,11.2-16.73,34.51-37.78,56.51-11.62,12.15-29.94,25.12-51.14,40.14-69.85,49.47-174.98,123.95-213.45,285.87-37.61-36.29-81.91-64.52-132.97-97-44.58-28.37-95.12-60.53-148.48-103.38Z"/>
    <path class="cls-2" d="M2702.83,1057.87c-53.36,42.85-103.9,75.01-148.48,103.37-49.25,31.34-92.24,58.71-128.98,93.17,38.95-155.98,141.38-228.56,209.7-276.94,21.47-15.21,40.01-28.34,52.05-40.92,21.72-22.71,33.31-46.61,38.88-58.1l1.03-2.12c5.07-10.34,1.73-16.95-2.68-19.46-5.33-3.04-12.22-.94-16.04,4.88-6.43,9.81-24.96,37.65-30.15,44.78-.89,1.22-2.18,2.28-3.14,1.6-.99-.7-1.6-2.98,.22-5.63,5.5-8.01,28.48-43.1,33.34-53.01,5.07-10.34,1.73-16.95-2.68-19.46-5.33-3.04-12.22-.94-16.04,4.88-6.34,9.66-24.75,37.32-30.16,44.79-1.22,1.68-2.61,2.4-3.45,1.8-.97-.69-1.4-2.99,.69-5.99,6.08-8.84,28.15-42.58,33.19-52.86,5.07-10.34,1.73-16.95-2.68-19.46-5.33-3.04-12.22-.94-16.04,4.88l-1.05,1.61c-6.55,10.02-23.97,36.62-29.03,43.09-1.64,2.1-3.31,2.08-4.25,1.42-1.11-.78-1.55-2.66-.02-5.11l1.63-2.61c6.36-10.19,21.25-34.04,25.73-43.17,5.07-10.35,1.73-16.95-2.68-19.46-5.33-3.03-12.22-.94-16.04,4.88l-.24,.37c-5.86,8.95-19.6,29.9-29.93,44.44-6.26,8.81-10.49,11.32-12.35,10.74-.62-.19-6.05-2.65-6.48-29.7-.22-13.77-6.29-16.09-8.89-16.45-6.82-.96-13.57,6.96-17.63,20.6-24.49,82.37-113.28,156.5-211.12,176.26-82.92,16.74-156.22-7.69-206.41-68.8-16.22-19.75-29.64-42.27-34.7-52.6-2.61-5.31-2.54-9.74,.17-11.29,2.09-1.19,5.55-.44,7.73,2.88,5.39,8.22,24.74,37.38,30.33,45.04,3.75,5.15,8.74,5.18,11.79,3.02,3.68-2.6,5.18-8.65,1.32-14.26-5.45-7.93-28.14-42.57-32.88-52.23-2.61-5.32-2.54-9.75,.17-11.29,2.09-1.19,5.55-.44,7.73,2.88,5.59,8.54,24.71,37.28,30.32,45.03,3.89,5.37,9.01,5.44,12.12,3.23,3.57-2.54,5.08-8.53,.84-14.62-6.42-9.33-28.03-42.5-32.73-52.07-2.61-5.32-2.54-9.75,.17-11.3,2.09-1.19,5.55-.44,7.73,2.88l1.31,2.01c7.16,10.93,23.92,36.52,29.08,43.12,3.85,4.92,9.33,5.08,12.74,2.69,3.52-2.46,5.24-7.9,1.74-13.52l-1.67-2.68c-6.3-10.09-21.06-33.73-25.39-42.56-2.61-5.31-2.54-9.75,.17-11.29,2.09-1.19,5.55-.44,7.76,2.92,5.91,9.02,19.75,30.15,30.27,44.97,4.77,6.71,11.96,15.36,19.29,13.09,7.06-2.19,10.52-13.49,10.87-35.57,.11-7.11,2.61-10.49,4.87-10.64,2.9-.16,7.73,4.67,9.33,16.01,4.39,31.09,14.04,48.8,29.51,54.16,30.64,10.61,74.44-31.39,113.08-68.45,5.64-5.4,10.96-10.51,16.08-15.28h0c88.54-80.18,185.37-110.34,265.67-82.73,59.34,20.4,102.94,71.66,113.77,133.78,13.36,76.55-22.51,155.4-98.4,216.34Z"/>
  </g>
  <g>
    <path class="cls-5" d="M194.36,1245.11c3.25,0,6.05-1.14,8.4-3.42,2.36-2.28,3.54-5.04,3.54-8.29s-1.17-6.02-3.5-8.33c-2.33-2.3-5.14-3.46-8.44-3.46s-6.04,1.15-8.37,3.46c-2.33,2.31-3.5,5.08-3.5,8.33s1.17,5.94,3.5,8.25c2.33,2.31,5.12,3.46,8.37,3.46Z"/>
    <path class="cls-5" d="M222.72,1245.11c3.25,0,6.05-1.14,8.4-3.42,2.36-2.28,3.54-5.04,3.54-8.29s-1.17-6.02-3.5-8.33c-2.33-2.3-5.14-3.46-8.44-3.46s-6.04,1.15-8.37,3.46c-2.33,2.31-3.5,5.08-3.5,8.33s1.17,5.94,3.5,8.25c2.33,2.31,5.12,3.46,8.37,3.46Z"/>
    <path class="cls-5" d="M294.91,1348.49c-3.25,0-6.04,1.15-8.37,3.46-2.33,2.3-3.5,5.08-3.5,8.33s1.17,5.94,3.5,8.25c2.33,2.3,5.12,3.46,8.37,3.46s6.05-1.14,8.4-3.42c2.36-2.28,3.54-5.04,3.54-8.29s-1.17-6.02-3.5-8.33c-2.33-2.3-5.14-3.46-8.44-3.46Z"/>
    <path class="cls-5" d="M493.02,1348.49c-3.25,0-6.04,1.15-8.37,3.46-2.33,2.3-3.5,5.08-3.5,8.33s1.17,5.94,3.5,8.25c2.33,2.3,5.12,3.46,8.37,3.46s6.05-1.14,8.41-3.42c2.36-2.28,3.53-5.04,3.53-8.29s-1.17-6.02-3.5-8.33c-2.33-2.3-5.14-3.46-8.44-3.46Z"/>
    <path class="cls-5" d="M637.36,1276.22c-6.99-7.65-16.93-10.26-29.81-7.85l-52.24,12.8v-63.16h-23.17v102.28h-12.96c-5.45,0-9.52-1.44-12.21-4.32-2.7-2.88-3.86-7.46-3.5-13.75v-33.93h-24.51v33.93c.36,6.28-.8,10.87-3.5,13.75s-6.77,4.32-12.21,4.32h-5.5c-5.18,0-8.41-.63-9.66-1.89,1.31-2.99,1.96-7.59,1.96-13.83,0-11.26-3.5-20.71-10.49-28.36-6.99-7.65-16.93-10.26-29.81-7.85l-52.24,12.8v-63.16h-23.17v102.28h-13.28c-5.45,0-9.52-1.44-12.21-4.32-2.7-2.88-3.86-7.46-3.5-13.75v-33.93h-24.51v33.93c.37,6.28-.8,10.87-3.5,13.75-2.7,2.88-6.77,4.32-12.21,4.32h-3.53c-5.34,0-9.41-1.47-12.22-4.4-2.8-2.93-4.2-7.54-4.2-13.83v-48.15h-21.37v7.46l-20.27-2.67c-8.75-1.2-16.34,.14-22.78,4.05-6.44,3.9-11.19,8.96-14.26,15.16-3.06,6.2-4.28,13.05-3.65,20.54,.73,7.49,3.12,14,7.15,19.52,4.03,5.53,9.33,9.65,15.91,12.37,6.57,2.72,13.79,3.77,21.64,3.14,7.49-.68,14.24-3.25,20.27-7.7,2.09,3.93,5.55,7.33,10.37,10.21,5.55,3.35,12.15,5.03,19.8,5.03h7.15c8.96,0,15.82-1.72,20.58-5.15,2.61-1.88,4.89-4.42,6.86-7.59,2.41,3.26,5.14,5.84,8.23,7.7,5.55,3.35,11.1,5.03,16.65,5.03h92.54c11.26,0,19.92-2.46,26-7.38,4.98,4.92,11.1,7.38,18.38,7.38h8.88c8.96,0,15.81-1.72,20.58-5.15,2.61-1.88,4.89-4.42,6.86-7.59,2.41,3.26,5.14,5.84,8.23,7.7,5.55,3.35,11.1,5.03,16.65,5.03h92.22c12.88,0,22.78-3.19,29.69-9.58,6.91-6.39,10.37-15.34,10.37-26.87s-3.5-20.71-10.49-28.36Zm-416.72,27.85c-3.12,3.64-8.08,5.72-14.89,6.24-4.4,.47-8.22,.16-11.47-.94-3.25-1.1-5.77-2.72-7.58-4.87-1.81-2.15-2.84-4.74-3.1-7.78-.42-4.87,1.07-8.77,4.48-11.7,3.4-2.93,8.61-3.95,15.63-3.06l20.74,2.51v3.53c.58,7.07-.69,12.42-3.81,16.06Zm202.31,12.25c-2.62,2.65-6.94,3.97-12.96,3.97h-52.47v-16.5l53.81-12.8c5.34-1.15,9.27-.46,11.78,2.08,2.51,2.54,3.77,6.38,3.77,11.51s-1.31,9.1-3.93,11.74Zm197.8,0c-2.62,2.65-6.94,3.97-12.96,3.97h-52.47v-16.5l53.81-12.8c5.34-1.15,9.27-.46,11.78,2.08,2.51,2.54,3.77,6.38,3.77,11.51s-1.31,9.1-3.93,11.74Z"/>
  </g>
  <g>
    <path class="cls-5" d="M991.84,1403.27c-4.48,3.31-9.51,5.22-15.08,5.73-5.85,.47-11.22-.31-16.11-2.34-4.89-2.03-8.84-5.1-11.84-9.21-3-4.11-4.77-8.95-5.32-14.53-.47-5.57,.44-10.67,2.72-15.29,2.28-4.62,5.82-8.38,10.61-11.28,4.79-2.9,10.45-3.91,16.96-3.01l15.08,1.99v-5.55h15.9v35.84c0,4.68,1.04,8.11,3.13,10.29,2.08,2.18,5.12,3.27,9.09,3.27h2.22l3.22,1.7v12.34l-3.27,1.4h-4.85c-5.69,0-10.6-1.25-14.73-3.74-3.59-2.14-6.16-4.68-7.72-7.6Zm-31.13-62.62c-1.73-1.71-2.6-3.76-2.6-6.14s.87-4.48,2.6-6.2c1.73-1.71,3.81-2.57,6.23-2.57s4.55,.86,6.28,2.57c1.73,1.72,2.6,3.78,2.6,6.2s-.88,4.47-2.63,6.17c-1.75,1.7-3.84,2.54-6.26,2.54s-4.49-.86-6.23-2.57Zm28.62,31.86l-15.44-1.87c-5.22-.66-9.1,.1-11.63,2.28-2.53,2.18-3.65,5.09-3.33,8.71,.19,2.26,.96,4.19,2.31,5.79,1.34,1.6,3.23,2.81,5.64,3.62,2.42,.82,5.26,1.05,8.54,.7,5.07-.39,8.76-1.94,11.08-4.65,2.32-2.71,3.26-6.69,2.84-11.96v-2.63Zm-7.51-31.86c-1.73-1.71-2.6-3.76-2.6-6.14s.87-4.48,2.6-6.2c1.73-1.71,3.81-2.57,6.23-2.57s4.55,.86,6.28,2.57c1.73,1.72,2.6,3.78,2.6,6.2s-.88,4.47-2.63,6.17c-1.75,1.7-3.84,2.54-6.26,2.54s-4.49-.86-6.23-2.57Z"/>
    <path class="cls-5" d="M1066.68,1400.87v12.34l-3.33,1.4h-4.79c-4.13,0-8.26-1.25-12.39-3.74-4.13-2.49-7.45-6.67-9.94-12.51h6.96c-1.95,5.73-4.7,9.87-8.24,12.42-3.55,2.55-8.65,3.83-15.32,3.83h-2.1l-3.33-1.4v-12.63l3.33-1.4h2.1c4.05,0,7.08-1.07,9.09-3.22,2.01-2.14,2.87-5.55,2.6-10.23v-25.26h18.24v25.26c-.27,4.68,.59,8.09,2.6,10.23,2.01,2.14,5.04,3.22,9.09,3.22h2.22l3.22,1.7Zm-31.13,34.2c-1.73-1.72-2.6-3.76-2.6-6.14s.87-4.48,2.6-6.2c1.73-1.71,3.81-2.57,6.23-2.57s4.55,.86,6.28,2.57c1.73,1.71,2.6,3.78,2.6,6.2s-.88,4.47-2.63,6.17c-1.75,1.7-3.84,2.54-6.26,2.54s-4.49-.86-6.23-2.57Z"/>
    <path class="cls-5" d="M1155.78,1397.77c.94,.94,3.33,1.4,7.19,1.4h3.68l2.63,1.64v12.39l-2.81,1.4h-6.02c-5.42,0-9.98-1.83-13.68-5.5-4.52,3.66-10.97,5.5-19.35,5.5h-66.01l-2.81-1.4v-12.63l2.81-1.4h9.71v-76.12h17.25v47.01l38.88-9.53c9.59-1.79,16.98,.16,22.19,5.85,5.2,5.69,7.81,12.73,7.81,21.11,0,4.64-.49,8.07-1.46,10.29Zm-15.79-10.29c0-3.82-.94-6.67-2.81-8.57-1.87-1.89-4.79-2.41-8.77-1.55l-40.05,9.53v12.28h39.06c4.48,0,7.7-.98,9.65-2.95,1.95-1.97,2.92-4.88,2.92-8.74Z"/>
    <path class="cls-5" d="M1214.13,1400.87v12.34l-3.33,1.4h-4.79c-4.13,0-8.26-1.25-12.39-3.74-4.13-2.49-7.45-6.67-9.94-12.51h6.96c-1.95,5.73-4.7,9.87-8.24,12.42-3.55,2.55-8.65,3.83-15.32,3.83h-2.1l-3.33-1.4v-12.63l3.33-1.4h2.1c4.05,0,7.08-1.07,9.09-3.22s2.87-5.55,2.6-10.23v-25.26h18.24v25.26c-.27,4.68,.59,8.09,2.6,10.23,2.01,2.14,5.04,3.22,9.09,3.22h2.22l3.22,1.7Zm-31.13,34.2c-1.73-1.72-2.6-3.76-2.6-6.14s.87-4.48,2.6-6.2,3.81-2.57,6.23-2.57,4.55,.86,6.29,2.57c1.73,1.71,2.6,3.78,2.6,6.2s-.88,4.47-2.63,6.17c-1.75,1.7-3.84,2.54-6.26,2.54s-4.49-.86-6.23-2.57Z"/>
    <path class="cls-5" d="M1218.34,1399.18v-76.12h17.25v47.01l38.88-9.53c9.59-1.79,16.98,.16,22.19,5.85,5.2,5.69,7.81,12.73,7.81,21.11s-2.57,15.24-7.72,20-12.51,7.13-22.1,7.13h-65.48l-3.33-1.4v-12.63l3.33-1.4h9.18Zm68.87-11.69c0-3.82-.94-6.67-2.81-8.57-1.87-1.89-4.79-2.41-8.77-1.55l-40.05,9.53v12.28h39.05c4.48,0,7.7-.98,9.65-2.95,1.95-1.97,2.92-4.88,2.92-8.74Z"/>
  </g>
  <text class="cls-6" transform="translate(361.12 637.12)"><tspan x="0" y="0">ةبطبط</tspan></text>
  <g>
    <path class="cls-4" d="M1034.69,1676.97c3.22,.8,6.22,2,8.5,4.58,2.43,2.77,3.6,5.99,3.58,9.66,0,1.29,.12,2.6-.03,3.87-.19,1.6,.43,2.26,1.96,2.64,6.56,1.67,12.5,4.63,17.86,8.77,8.47,6.54,14.18,15.04,17.82,25.02,2.99,8.21,4.05,16.72,4.06,25.4,0,14.38,.02,28.77-.03,43.15,0,1.28,.38,2.18,1.29,3.08,5.44,5.36,10.84,10.75,16.18,16.19,.57,.58,.95,1.59,1,2.42,.13,2.51,.05,5.03,.05,7.67h-147.98c0-2.91-.04-5.82,.04-8.73,.01-.47,.56-.98,.96-1.38,5.39-5.41,10.77-10.82,16.21-16.17,.91-.9,1.29-1.79,1.29-3.07-.04-14.38-.03-28.77-.03-43.15,0-8.68,1.02-17.22,4.07-25.4,6.33-17.02,17.79-28.72,35.5-33.75,1.68-.48,2.19-1.17,2.13-2.87-.12-3.51-.29-7.04,1.47-10.32,2.13-3.98,5.37-6.42,9.77-7.33,.28-.06,.54-.19,.81-.29,1.17,0,2.35,0,3.52,0Z"/>
    <path class="cls-4" d="M1014.45,1838.94h36.92c-.1,6.41-2.75,11.44-7.84,14.96-6.4,4.44-13.25,4.78-20.01,.76-5.81-3.46-8.77-8.71-9.07-15.72Z"/>
  </g>
  <g>
    <path d="M2656.62,1610.44c-5.64,.57-7.19-2.06-7.05-6.83,.24-8.28,.05-16.57,.07-24.86,.02-6.45,3.22-8.49,9.31-6.04,1.02,.41,2.06,.74,3.44,1.22,.47-4.68-.84-6.93-5.61-6.47-3.12,.3-6.33,.38-9.43,0-9.18-1.15-16.86,1.65-23.6,7.84-1.11,1.02-3.09,1.08-4.66,1.58-.36-1.67-1.12-3.36-1.03-5,.57-9.74,1.35-19.48,2-29.22,.1-1.44-.16-2.9-.26-4.28-19.98-3.14-45.89,16.67-46.49,35.52,.82-.14,1.64-.15,2.35-.43,8.52-3.39,10.59-2,10.6,7.2,0,7.95,.05,15.91-.02,23.86-.05,5.3-2.53,7.14-7.67,5.89-15.79-3.83-21.35-19.47-11.53-32.28,.87-1.13,1.61-2.49,1.96-3.86,6.25-24.37,23.71-38.57,48.83-39.63,.48-.02,.96-.13,2.26-.31,0-2.32-.07-4.71,.01-7.11,.37-10.68,6.99-17.23,17.68-17.31,11.27-.09,22.54-.09,33.81,0,10.75,.09,17.26,6.58,17.46,17.41,.13,7.29,.09,14.58,.01,21.87-.13,11.89-6.64,18.23-18.66,18.29-1.65,0-3.3,0-6.5,0,2.08,4.37,3.3,8.37,5.63,11.56,7.4,10.14,4.26,23.78-7.06,29.32-.94,.46-2.09,1.27-2.39,2.17-3.51,10.59-11.72,15.12-21.87,17.13-5.78,1.15-11.57,2.4-17.42,2.95-1.56,.15-3.35-2.11-5.04-3.26,1.69-1.1,3.33-3.03,5.09-3.14,6.15-.39,12.46,.59,18.49-.34,7.57-1.17,14.03-4.88,17.27-13.49Zm-34.25-38.08c1.31-.94,2.53-1.75,3.67-2.67,4.82-3.89,10.11-5.69,16.49-5.39,9.42,.44,18.88,.15,28.32,.1,9.69-.04,15.13-5.17,15.42-14.9,.23-7.61,.2-15.24,0-22.86-.2-7.58-5.16-13.13-12.65-13.35-12.41-.37-24.85-.32-37.27-.04-6.7,.15-12.24,5.1-12.52,11.26-.72,15.83-1,31.67-1.47,47.85Zm38.61,32.72c6.51-2.18,9.82-7.41,9.54-14.62-.26-6.71-3.69-11.4-9.54-12.75v27.37Zm-86.02-27.72c-6.58,2.29-10.01,7.98-9.48,14.92,.53,7.01,3.78,11.37,9.48,12.6v-27.52Zm82.63-1.68c-.41-.32-.82-.64-1.24-.96-1.2,.93-3.41,1.84-3.43,2.81-.26,9.84-.16,19.68-.16,29.53,.5,.29,1,.57,1.5,.86,1.11-1.04,3.15-2.06,3.18-3.13,.25-9.7,.15-19.4,.15-29.11Zm-74.66,.15c-.56-.41-1.12-.81-1.68-1.22-.97,1.28-2.75,2.53-2.79,3.84-.26,8.44-.08,16.89-.16,25.34-.03,3.65,1.57,4.16,4.79,2.84,0-9.2,0-18.3,0-27.39,0-1.14-.1-2.27-.15-3.41Z"/>
    <path d="M2611.01,1592.69c-1.86,1.2-3.06,2.58-4.02,2.43-1.07-.16-1.93-1.72-2.89-2.68,1.08-.99,2.04-2.49,3.28-2.77,.75-.17,1.94,1.54,3.63,3.02Z"/>
    <path d="M2621.96,1592.34c-1.77,1.37-3.04,3.01-3.78,2.79-1.23-.36-2.11-1.9-3.14-2.94,1-.9,1.95-2.41,3.03-2.51,.97-.09,2.09,1.36,3.89,2.66Z"/>
    <path d="M2632.9,1592.27c-1.75,1.4-3,3.06-3.74,2.85-1.23-.34-2.13-1.87-3.17-2.9,.99-.91,1.91-2.43,2.99-2.55,.97-.11,2.11,1.32,3.92,2.6Z"/>
    <path d="M2634.54,1538.75h40.73c-3.79,3.21-36.88,3.45-40.73,0Z"/>
    <path d="M2675.23,1530.13h-41.17c2.89-3.18,37.08-3.35,41.17,0Z"/>
    <path d="M2674.63,1549.39c-3.34,2.75-36.79,2.96-40.48,.57,2.66-2.01,34.31-2.59,40.48-.57Z"/>
  </g>
  <g>
    <path d="M2172.55,1583.57h-260.57c-.18-.17-.33-.42-.54-.49-14.43-4.63-20.43-12.8-20.43-27.86,0-109.18,0-218.35,0-327.53,0-16.75,10.63-27.43,27.29-27.43,82.61,0,165.22,0,247.84,0,16.71,0,27.35,10.64,27.37,27.35,.01,22.46,0,44.92,0,67.38v3.87c1.26-.97,1.9-1.99,2.51-3.04,5.14-8.84,10.04-17.82,15.46-26.47,5.93-9.47,14.86-13.88,25.99-13.12,11.17,.76,19.25,6.57,23.87,16.68,4.33,9.45,2.96,18.61-2.21,27.52-21.26,36.66-42.45,73.37-63.53,110.13-1.28,2.23-2.01,5.1-2.01,7.68-.12,46.17-.08,92.33-.09,138.5,0,13.31-6.95,22.46-19.7,26.15-.45,.13-.84,.45-1.25,.69Zm-65.57-134.76h-4.19c-31.32,0-62.64,0-93.95,0-1.25,0-2.5,.07-3.74-.06-3.99-.41-6.97-3.7-6.92-7.52,.06-3.85,3.07-6.99,7.11-7.34,1.24-.11,2.49-.05,3.74-.05,34.56,0,69.12-.02,103.69,.04,2.45,0,3.98-.48,5.34-2.85,19.59-34.16,39.33-68.24,58.96-102.38,.88-1.53,1.45-3.47,1.45-5.23,.09-32.06,.07-64.12,.05-96.19,0-7.89-4.11-11.99-12-11.99-82.85-.01-165.7-.01-248.55,0-7.88,0-11.99,4.11-11.99,12.01-.01,109.78-.01,219.57,0,329.35,0,7.88,4.11,11.99,12,11.99,82.85,.01,165.7,.01,248.55,0,7.87,0,11.98-4.12,11.98-12.01,.02-37.55,.01-75.1,0-112.65,0-.86-.17-1.71-.35-3.35-9.29,16.08-18.1,31.42-27.04,46.69-1.16,1.99-2.74,3.91-4.54,5.33-13.46,10.52-27.05,20.88-40.55,31.36-3.08,2.39-6.23,3.86-9.92,1.61-3.63-2.21-3.97-5.62-3.39-9.5,1.27-8.5,2.16-17.07,3.5-25.56,2.21-14.01,1.51-28.82,10.9-40.92,.05-.06-.04-.23-.16-.77Zm105.85-152.1c-31.89,55.24-63.54,110.04-95.33,165.1,7.9,4.56,15.51,8.95,23.34,13.48,31.85-55.16,63.53-110.04,95.33-165.11-7.94-4.58-15.47-8.92-23.35-13.47Zm30.66,.4c4.11-5.99,7.63-11.74,3.84-18.86-2.56-4.81-6.73-7.27-12.2-7.16-8.27,.17-11.53,6.22-14.64,12.74,7.62,4.4,15.15,8.75,23,13.28Zm-133.71,205.03c7.2-5.55,13.61-10.49,20.38-15.72-5.86-3.37-11.16-6.42-16.96-9.76-1.16,8.66-2.22,16.51-3.42,25.48Z"/>
    <path d="M1961.19,1326.03c4.62,0,9.23-.05,13.85,.01,5.36,.07,8.26,2.69,8.34,7.95,.14,9.6,.13,19.21,.01,28.82-.07,5.32-2.92,8.08-8.18,8.12-9.48,.07-18.97,.07-28.45,0-5.1-.04-8.08-2.72-8.17-7.76-.17-9.85-.17-19.71,.02-29.57,.09-4.82,3.1-7.46,7.98-7.55,4.87-.09,9.73-.02,14.6-.02Zm7.07,15.15h-14.52v14.59h14.52v-14.59Z"/>
    <path d="M1960.77,1448.81c-4.74,0-9.49,.07-14.23-.02-4.87-.09-7.85-2.75-7.94-7.59-.19-9.85-.19-19.71-.01-29.57,.09-5.01,3.09-7.68,8.21-7.71,9.48-.06,18.97-.07,28.45,0,5.11,.04,8.03,2.72,8.11,7.78,.15,9.73,.15,19.46,0,29.19-.08,5.24-3,7.85-8.37,7.91-4.74,.06-9.48,.01-14.23,.01Zm7.49-15.11v-14.57h-14.45v14.57h14.45Z"/>
    <path d="M1960.86,1526.67c-4.62,0-9.23,.04-13.85-.01-5.35-.06-8.34-2.68-8.43-7.89-.16-9.73-.16-19.46,0-29.19,.09-5.05,3.05-7.76,8.13-7.8,9.48-.07,18.97-.07,28.45,0,5.3,.04,8.15,2.75,8.22,8.07,.12,9.61,.13,19.21,0,28.82-.08,5.28-2.96,7.93-8.29,8-4.74,.06-9.48,.01-14.23,.01Zm7.41-15.11v-14.58h-14.46v14.58h14.46Z"/>
    <path d="M2055.69,1355.98c16.32,0,32.65-.02,48.97,.02,5.06,.01,8.46,3.13,8.43,7.51-.03,4.39-3.42,7.43-8.51,7.43-32.65,.03-65.3,.03-97.94,0-5.04,0-8.48-3.16-8.45-7.52,.03-4.35,3.46-7.35,8.53-7.44,.87-.02,1.74,0,2.62,0,15.45,0,30.9,0,46.36,0Z"/>
    <path d="M2060.15,1296.06c-3.48,0-5.86,.11-8.22-.02-4.25-.24-7.36-3.48-7.35-7.47,.02-3.99,3.13-7.24,7.4-7.41,3.99-.16,7.98-.05,11.97-.05,3.02,0,5.25-1.12,5.3-4.42,.05-3.29-2.1-4.41-5.14-4.59-11.59-.67-19.77-9.02-19.54-19.86,.23-10.96,8.98-18.99,20.75-19.04,2.49-.01,5-.1,7.48,.04,4.29,.24,7.34,3.44,7.31,7.48-.03,4.04-3.09,7.17-7.39,7.41-2.24,.12-4.49,.03-6.73,.04-4.27,.03-6.6,1.58-6.38,4.53,.28,3.71,2.88,4.38,6.09,4.52,8.8,.37,15.88,6.23,18.09,14.73,2.07,7.97-1.44,16.6-8.48,21.12-5.03,3.23-10.62,3.22-15.14,3Z"/>
    <path d="M2012.64,1257.16c3.49,0,6.47-.08,9.45,.02,4.62,.15,7.67,3.17,7.67,7.45,0,4.27-3.03,7.32-7.64,7.48-2.98,.11-5.97,.02-8.82,.02-.27,.43-.49,.63-.52,.85q-.76,8.14,7.25,8.15c1.87,0,3.75-.1,5.61,.05,4.13,.33,6.95,3.36,6.98,7.35,.04,3.99-2.73,7.27-6.83,7.47-4.48,.22-9,.34-13.45-.08-7.63-.73-14-6.79-14.33-14.44-.48-11.19-.5-22.44,0-33.63,.36-8.09,7.33-14.19,15.41-14.58,3.86-.18,7.73-.14,11.59-.03,4.6,.14,7.62,3.21,7.6,7.5-.02,4.27-3.06,7.25-7.7,7.41-2.74,.1-5.5,.2-8.23-.02-3.14-.25-4.37,.98-4.08,4.06,.14,1.47,.02,2.95,.02,4.98Z"/>
    <path d="M1962.77,1248.15c-1.98,0-3.47,.07-4.95-.01-4.25-.26-7.42-3.42-7.47-7.37-.06-3.94,3.1-7.42,7.3-7.5,8.35-.15,16.71-.16,25.06,0,4.34,.08,7.25,3.33,7.22,7.47-.03,4.12-2.97,7.13-7.34,7.4-1.46,.09-2.94,.01-4.85,.01,0,2.01,0,3.72,0,5.42,0,11.35,0,22.69,0,34.04,0,3.37-1.07,6.54-4.38,7.53-2.23,.66-5.56,.61-7.22-.66-1.82-1.39-3.15-4.52-3.22-6.93-.32-11.59-.15-23.18-.15-34.78,0-1.35,0-2.7,0-4.61Z"/>
    <path d="M2106.79,1248.14c-2.05,0-3.65,.11-5.24-.02-4.11-.35-6.93-3.41-6.95-7.39-.02-3.98,2.78-7.34,6.86-7.43,8.6-.2,17.21-.19,25.81,0,3.98,.09,6.98,3.67,6.92,7.47-.06,3.83-3.09,7.01-7.11,7.34-1.6,.13-3.21,.02-5.31,.02,0,1.61,0,2.94,0,4.27,0,11.59,.02,23.19-.01,34.78-.02,5.52-2.86,8.86-7.4,8.87-4.48,0-7.53-3.46-7.55-8.84-.05-12.83-.02-25.66-.02-39.09Z"/>
    <path d="M2037.74,1526.67c-10.22,0-20.45,.02-30.67,0-5.37-.02-8.87-3-8.88-7.47,0-4.47,3.49-7.48,8.86-7.48,20.57-.02,41.15-.02,61.72,0,5.33,0,8.78,3.12,8.67,7.65-.11,4.39-3.47,7.28-8.65,7.3-10.35,.04-20.7,.01-31.05,.01Z"/>
    <path d="M2128.21,1363.45c0-4.12,3.22-7.41,7.29-7.45,4.01-.04,7.43,3.27,7.54,7.29,.11,4.15-3.41,7.7-7.56,7.64-4.07-.06-7.27-3.35-7.27-7.48Z"/>
  </g>
  <g>
    <path d="M1313.64,883.48c-110.39-.14-199.54-89.66-199.37-200.2,.17-110.28,89.86-199.39,200.43-199.13,110.02,.25,199.05,89.87,198.88,200.19-.17,110.07-89.73,199.27-199.94,199.13Zm189.95-203.36c-1.44-103.77-88.16-187.34-192.98-185.96-104.1,1.37-187.7,88-186.35,193.11,1.34,103.99,88.11,187.6,193.24,186.21,103.96-1.37,187.55-88.23,186.09-193.35Z"/>
    <path d="M1228.05,735.66c2.63,4.83,1.61,7.68-3.25,10.34-8.51,4.64-13.22,12.87-13.51,22.1-.55,17.57-.21,35.22,.86,52.78,.59,9.61,5.56,12.81,15.15,12.73,2.66-.02,5.51,.62,7.92-.15,2.44-.77,4.72-2.66,6.5-4.59,.58-.63-.24-3.92-1.09-4.25-2.44-.94-5.22-1.12-7.88-1.29-.83-.05-1.72,.9-2.6,1.37-5.05,2.76-9.41,1.07-10.36-4.5-.92-5.39-1.38-10.89-1.55-16.36-.27-9.15-.27-18.31-.15-27.46,.09-6.92,1.46-13.55,5.77-19.27,6.11-8.12,15.42-9.69,23.73-3.91,5.56,3.87,9.21,9.28,10.94,15.66,3.57,13.16,6.7,26.43,9.97,39.66,.28,1.12,.35,2.3,.44,3.46,.51,7.15-2.46,9.99-9.69,9.29-.16-.02-.36-.15-.48-.09-2.88,1.17-5.92,2.08-8.48,3.75-.56,.36,.29,4.79,1.11,5.01,2.97,.78,6.22,.89,9.32,.62,1.85-.16,3.55-1.68,5.42-2.25,8.22-2.51,11.47-6.5,10.59-15.03-.71-6.92-2.24-13.78-3.84-20.56-1.94-8.25-4.19-16.44-6.55-24.58-3.94-13.54-11.63-23.29-26.29-26.51-1.7-.37-2.88-4.46-3.67-7.03-.29-.96,.92-3.14,1.98-3.64,8.52-4.03,17.17-7.79,26.27-11.85,12.29,30.55,24.73,61.48,37.17,92.4,.28-.02,.57-.03,.85-.05,.15-1.18,.37-2.35,.43-3.53,.53-11.47,.86-22.95,1.62-34.41,.4-6.04-.65-11.54-3.74-16.72-7.86-13.14,1.46-19.77,11.86-19.76,3.72,0,7.69,.69,11.11,2.11,5.38,2.23,7.96,7.87,4.96,12.77-6.69,10.91-5.83,22.51-5.09,34.32,.52,8.37,.75,16.75,2.25,25.34,12.44-30.91,24.87-61.81,37.28-92.66,7.31,3.43,14.37,6.64,21.29,10.12,.98,.49,1.95,2.33,1.86,3.46-.58,7.28-1.46,14.54-2.27,22.03-1.9,.38-3.49,.67-5.07,1.01-7.58,1.62-13.18,8.2-13.53,15.89-.37,8.13,4.5,15.12,12.16,17.44,7.74,2.34,15.5-.67,19.83-7.7,3.97-6.43,3.24-15.52-2.49-20.63-3.13-2.79-3.49-5.39-2.84-9.13,1.01-5.85,1.44-11.79,2.2-18.4,17.97,7.18,34.71,15.25,47.92,29.32,7.81,8.33,13.19,17.96,15.75,29.03,.47,2.04-.16,5.08-1.47,6.69-31.9,39.07-72.76,62.81-123.08,67.46-65.17,6.03-119.57-16.15-161.97-66.58-2.3-2.74-2.71-5.18-1.8-8.6,4.19-15.64,13.11-28.16,26.13-37.26,9.2-6.44,19.54-11.26,29.4-16.74,.8-.45,1.84-.47,2.69-.67Z"/>
    <path d="M1378.93,613.92c0,2.66,.06,5.33-.01,7.99-.12,4.14-.48,7.87,4.17,10.66,2.05,1.23,2.65,5.4,3.25,8.37,.37,1.83-.25,4-.88,5.86-2.38,7.06-4.5,14.26-7.63,20.98-1.36,2.92-4.95,4.79-7.47,7.2-1.44,1.37-3.55,2.65-4.02,4.34-10.42,37.37-51.92,45.53-78.36,32.17-13.28-6.71-21.46-17.49-25.9-31.37-.8-2.49-1.86-3.78-4.5-5.02-3.14-1.47-6.23-4.54-7.73-7.69-2.99-6.26-5.06-12.98-7.17-19.62-2.77-8.71-1.66-11.67,5.29-17.57,.91-.78,1.47-2.59,1.36-3.85-1.33-16.59,.69-33.03,4.11-49.09,1.5-7.06,1.6-16.19,10.27-20.19,.41-.19,.94-.68,.95-1.05,.18-6.93,5.91-8.46,10.66-10.32,14.12-5.52,28.49-11.24,44-8.56,8.4,1.45,16.45,5,24.6,7.81,1.66,.57,3.5,1.72,4.43,3.14,4.85,7.44,12.11,12.1,18.9,17.43,6.13,4.82,9.13,11.61,9.68,19.54,.68,9.61,1.74,19.2,2.64,28.79-.22,.02-.43,.04-.65,.05Zm-110.36,54.39c7,29.07,24.22,38.74,45.16,39.36,22.93,.68,35.83-10.41,46.26-39.39,4.8,1.93,7.51-.55,9-4.78,2.2-6.25,4.26-12.56,6.2-18.9,.52-1.7,.75-3.66,.45-5.4-.21-1.25-1.3-2.92-2.39-3.3-1.1-.39-3.02,.19-3.96,1.03-1.3,1.16-1.94,3.05-3.04,4.48-.82,1.07-1.93,1.91-3.29,3.21-2.52-13.01-4.9-24.97-7.13-36.96-1.81-9.73-6.15-13.97-16-14.56-5.13-.31-10.33-.24-15.44,.26-14.07,1.39-28.11,3.27-42.21,.34-4.29-.89-7.33,1.44-8.91,4.9-2.46,5.4-5.04,10.98-6.08,16.76-1.73,9.55-2.28,19.31-3.4,29.67-.87-.8-2.19-1.53-2.78-2.64-1.58-2.97-3.72-6.09-7.02-4.61-1.4,.63-1.13,5.19-1.39,7.99-.09,.91,.49,1.92,.85,2.84,1.96,5.1,3.96,10.19,5.91,15.3,1.61,4.21,4.33,6.24,9.21,4.38Z"/>
    <path d="M1381.56,778.88c-1.51-2.17-3.97-4.21-4.29-6.54-.46-3.25,1.9-5.6,5.53-5.59,3.63,.01,6,2.37,5.53,5.61-.34,2.34-2.84,4.37-4.37,6.53-.8,0-1.6,0-2.39-.01Z"/>
  </g>
</svg>