<?xml version="1.0" encoding="UTF-8"?>
<svg id="Layer_1" data-name="Layer 1" xmlns="http://www.w3.org/2000/svg" viewBox="0 0 1188.69 643.33">
  <g>
    <path d="M1188.69,161.35c-2.17,5-3.62,10.51-6.67,14.9-6.96,10.03-17.11,14.5-29.34,14.32-4.36-.06-4.37,.01-4.37,4.37,0,16.65,0,33.3,0,49.95,0,1.24,.31,2.66-.19,3.67-.89,1.78-1.97,4.11-3.55,4.73-1.6,.63-4.35,.07-5.81-1.02-2.58-1.92-4.59-4.6-6.79-7.01-7.28-7.98-14.55-15.99-21.8-24-.52-.57-.89-1.27-1.31-1.89-1.55,5.24-2.32,10.22-4.44,14.55-6.5,13.32-17.72,19.61-32.37,19.7-29.86,.18-59.73,.22-89.6,.17-3.31,0-5.57,.93-7.8,3.41-16.72,18.57-33.58,37.02-50.41,55.5-2.34,2.57-4.57,5.72-8.75,4.21-4.34-1.57-4.01-5.44-4.01-9.09,.02-16.65,0-33.3,0-49.95,0-1.21,0-2.41,0-3.99-3.93,0-7.51,0-11.08,0-7.33,0-14.66-.24-21.97,.05-17.02,.66-32.21-10.99-35.48-27.95-.08-.41-.38-.78-.58-1.18,0-44.11,0-88.22,0-132.33,1.11-3.01,1.94-6.17,3.37-9.02,6.64-13.26,17.7-19.6,32.34-19.79,13.74-.18,27.48-.08,41.23-.11,1.18,0,2.36,0,3.73,0,0-9.88-.09-19.2,.02-28.53C923.29,14.88,938.34,.03,958.47,0c14.31-.02,28.61,0,42.92,.02,50.24,.09,100.48,.22,150.72,.25,12.39,0,22.88,4.16,29.96,14.49,3.03,4.42,4.46,9.92,6.62,14.92V161.35Zm-265.37,135.01c1.35-1.45,2.01-2.15,2.66-2.87,14.24-15.66,28.53-31.27,42.68-47.01,2.62-2.92,5.42-4.17,9.39-4.17,31.33-.04,62.66-.53,93.99-.34,13.61,.08,24.39-10.2,24.27-24.39-.33-39.37-.1-78.75-.14-118.12,0-2.34-.05-4.77-.62-7.01-2.88-11.28-11.53-17.54-24.06-17.51-64.35,.16-128.71,.48-193.06,.42-13.36-.01-24.59,9.17-24.56,24.52,.08,39.37,0,78.75,.04,118.12,.02,14.85,9.71,24.37,24.65,24.39,12.06,.02,24.12,0,36.18,0,6.76,0,8.57,1.8,8.57,8.6,.01,13.61,0,27.22,0,40.84,0,1.18,0,2.35,0,4.55Zm11.78-232.83c1.78,0,3.23,0,4.69,0,45.09-.02,90.17-.14,135.26,.07,4.44,.02,9.21,1.36,13.24,3.31,13.37,6.45,19.67,17.67,19.71,32.31,.1,32.96,.06,65.93-.02,98.89,0,2.56,.75,4.42,2.47,6.28,7.97,8.58,15.82,17.27,23.7,25.93,.64,.71,1.12,1.58,1.67,2.37,.28-.2,.57-.39,.85-.59,0-1.09,0-2.19,0-3.28,0-14.06-.01-28.13,0-42.19,0-5.63,2.09-7.66,7.81-7.68,2.59-.01,5.18,0,7.78,0,15.41-.02,24.91-9.41,24.92-24.76,.02-39.15,.03-78.31-.03-117.46,0-2.67-.28-5.42-.97-7.99-2.77-10.32-11.35-16.62-22.6-16.66-33.59-.11-67.18-.16-100.77-.25-31.11-.09-62.22-.23-93.33-.29-12.8-.03-23.28,7.63-24.18,18.94-.86,10.82-.19,21.76-.19,33.06Z"/>
    <path d="M974.9,167.23c-23.88,0-47.77,0-71.65-.02-1.56,0-3.17-.09-4.67-.47-2.73-.68-4.14-2.57-4.15-5.4-.01-2.82,1.39-4.71,4.11-5.44,1.28-.35,2.66-.47,3.99-.47,48.44-.02,96.89-.02,145.33,0,1.44,0,2.95,.16,4.31,.59,2.56,.82,3.8,2.92,3.73,5.44-.07,2.51-1.37,4.57-4,5.23-1.5,.38-3.11,.51-4.67,.51-24.11,.03-48.22,.02-72.33,.02Z"/>
    <path d="M975.33,201.77c-24.44,0-48.89,0-73.33,0-4.88,0-7.55-2.06-7.57-5.76-.01-2.97,1.44-4.93,4.34-5.59,1.41-.32,2.9-.37,4.36-.37,47.99-.02,95.98-.02,143.97,0,1.12,0,2.26,0,3.37,.17,3.34,.48,5.55,2.82,5.51,5.75-.03,2.89-2.34,5.3-5.62,5.73-1.11,.15-2.25,.08-3.37,.08-23.88,0-47.76,0-71.64,0Z"/>
    <path d="M937.39,120.9c11.83,0,23.65,0,35.48,.01,1.23,0,2.49,.05,3.67,.35,2.87,.75,4.46,2.82,4.32,5.68-.15,2.96-1.84,5.02-5.01,5.41-1.11,.14-2.24,.2-3.36,.2-23.2,.01-46.4,.01-69.6,0-1.23,0-2.48-.04-3.7-.24-2.78-.44-4.41-2.12-4.71-4.92-.32-2.96,1.02-5.04,3.8-5.98,1.24-.42,2.65-.49,3.98-.5,11.71-.04,23.43-.02,35.14-.02Z"/>
  </g>
  <g>
    <path d="M164.16,220.94c2.08,.52,4.18,.98,6.25,1.57,18.42,5.21,30.76,20.68,32.67,40.73,.13,1.33,.96,2.93,1.98,3.78,18.46,15.46,27.63,35.23,27.79,59.25,.01,2.06,.02,4.13,0,6.19-.05,4.29,.36,8.11,2.82,12.19,6.24,10.36-1.28,23.25-13.9,24.52-3.03,.3-4.1,.95-4.62,4.26-2.75,17.52-11.69,31.26-26.54,41.01-1.77,1.16-2.53,2.3-2.47,4.43,.16,4.85,.12,9.7,.03,14.55-.1,5.17,2.26,8.57,6.97,10.57,14.49,6.17,28.97,12.35,43.43,18.6,12.7,5.49,19.05,15.24,19.08,29.07,.03,13.21,0,26.43,0,39.64,0,1.03,.11,2.11-.15,3.08-.67,2.48-2.33,3.91-4.99,3.66-2.46-.24-3.91-1.71-4.15-4.21-.1-1.02-.07-2.06-.07-3.09,0-12.9-.02-25.81,0-38.71,.02-10.03-4.33-17.09-13.78-20.95-7.82-3.19-15.53-6.63-23.3-9.95-.92-.39-1.86-.74-3.02-1.2v39.51c5.86,1.97,10.57,5.51,13.1,11.51,1.74,4.14,2.05,8.37,.91,12.71-2.31,8.79-10.43,14.66-19.94,14.42-8.54-.22-16.54-7.02-18.19-15.46-1.99-10.18,2.71-17.85,14.31-23.32v-36.2c-1.14,.68-1.99,1.16-2.81,1.7-9.1,6.05-18.18,12.14-27.3,18.16-7.26,4.8-12.25,4.76-19.41,0-9.86-6.57-19.73-13.13-29.98-19.95v26.09c4.56,0,9.06-.02,13.57,0,10.03,.05,15.9,5.92,15.97,16,.04,5.88,.09,11.77-.02,17.65-.16,8.59-6.18,15.18-13.85,15.32-3.13,.06-5.23-1.54-5.53-4.2-.28-2.56,1.54-4.53,4.67-5.07,3.69-.64,5.14-2.27,5.17-6.07,.04-6.09,.05-12.18,0-18.27-.03-4.17-1.9-6.02-6.07-6.03-12.59-.03-25.19-.02-37.78,0-4.18,0-6.17,1.83-6.24,5.96-.11,6.19-.11,12.39,0,18.58,.07,3.57,1.69,5.22,5.18,5.83,3.42,.6,4.98,2.42,4.59,5.34-.35,2.66-2.38,4.07-5.67,3.93-7.12-.3-13.29-6.57-13.49-14.06-.18-6.91-.18-13.83,0-20.75,.19-7.92,6.37-13.94,14.33-14.13,4.94-.11,9.89-.02,15.11-.02v-29.12c-2.28,.93-4.53,1.81-6.75,2.76-6.53,2.79-13.02,5.68-19.59,8.38-9.29,3.83-13.65,10.82-13.64,20.73,.01,13.21,.01,26.43-.01,39.64,0,1.23,.09,2.57-.35,3.67-.85,2.11-2.6,3.24-4.94,2.85-2.76-.46-4.04-2.31-4.05-5.02-.03-9.08-.06-18.17,0-27.25,.04-6.6-.34-13.27,.47-19.78,1.39-11.13,7.94-18.77,18.17-23.19,14.18-6.13,28.39-12.17,42.6-18.23,6.52-2.78,8.19-5.24,8.2-12.23,0-4.65,.12-9.3-.08-13.93-.05-1.19-.83-2.8-1.79-3.44-15.72-10.38-25.08-24.73-27.35-43.51-.23-1.88-1.21-1.97-2.68-2.11-8.79-.82-15.03-5.44-17.04-12.51-3.05-10.71,4.79-21.3,16.15-21.78,2.37-.1,4.75,.01,7.12-.04,3.76-.08,5.35-1.56,5.82-5.33,.76-6.04,4.17-9.37,10.18-10.21,26.79-3.77,51.68-12.8,74.63-27.13,.61-.38,1.19-.83,1.82-1.17,2.44-1.33,4.81-.86,6.31,1.22,1.57,2.19,1.21,4.77-1.14,6.53-2.03,1.53-4.24,2.84-6.64,4.42,1.36,.98,2.54,1.73,3.62,2.61,6.84,5.58,10.09,12.85,10.12,21.63,.02,6.11,1.35,7.43,7.43,7.44,2.47,0,4.93,0,7.48,0,.05-.05,.31-.18,.32-.33,3.61-41.41-22.94-67-51.19-73.25-35.51-7.85-72.07,16.94-77.4,52.88-.27,1.83-.41,3.68-.67,5.52-.46,3.24-2.54,4.98-5.43,4.62-2.7-.34-4.23-2.48-3.94-5.63,1.92-20.98,11.02-38.17,27.27-51.56,1.45-1.2,2.14-2.4,2.32-4.35,1.94-21.9,15.87-37.18,37.66-41.5,.39-.08,.75-.32,1.12-.49,3.72,0,7.43,0,11.15,0Zm-5.57,193.83c3.67-.49,7.4-.68,10.99-1.53,22.19-5.24,37.23-23.13,38.77-45.92,.45-6.62,1.38-7.47,8.13-7.47,1.44,0,2.89,.03,4.33-.04,4.35-.22,7.42-3.3,7.5-7.47,.08-3.91-2.88-7.22-7.06-7.61-3.28-.3-6.61-.11-9.88-.47-6.81-.74-11.88-5.96-12.61-12.79-.23-2.15-.19-4.33-.36-6.48-.47-5.66-3.28-9.92-8.05-12.84-3.79-2.31-7.51-2.81-11.91-.68-18.09,8.75-37.15,14.51-57.09,17.18-2.07,.28-2.73,1.14-2.99,3.08-.94,6.96-5.9,11.83-12.82,12.56-2.86,.3-5.77,.17-8.65,.28-4.79,.19-8.01,3.26-8.02,7.61,0,4.24,3.33,7.42,8.09,7.62,2.27,.1,4.54-.06,6.81,.09,2.83,.18,4.59,1.66,4.86,4.62,.1,1.13,.17,2.26,.25,3.39,1.8,26.41,23.31,46.57,49.73,46.86Zm-20.08,5.77c0,4.52,.05,8.62,0,12.72-.12,9.16-4.24,15.72-12.76,19.38-.97,.42-1.91,.92-3.12,1.5,11.11,7.42,21.91,14.63,32.72,21.83,2.21,1.47,4.45,1.37,6.65-.1,3.51-2.35,7.03-4.7,10.55-7.04,7.28-4.85,14.56-9.7,22.11-14.73-1.65-.75-2.96-1.31-4.26-1.93-6.64-3.18-10.72-8.32-11.45-15.72-.38-3.89-.23-7.83-.3-11.75-.02-1.27,0-2.53,0-4.21-13.61,4.58-26.69,4.53-40.14,.05Zm53.97-161.75c.09-14.06-17.28-28.55-33.9-28.55-16.62,0-34.04,14.53-33.89,28.52,22.6-10.81,45.2-10.82,67.8,.02Zm.69,259.77c0,5.69,4.59,10.3,10.18,10.24,5.56-.06,10.18-4.82,10.08-10.41-.09-5.51-4.6-10-10.09-10.04-5.64-.04-10.18,4.51-10.17,10.21Z"/>
    <path d="M317.16,500.3c-1.52,2.14-3.31,3.82-6.19,2.77-2.84-1.03-3.14-3.41-3.12-6.07,.07-11.35,.03-22.7,.03-34.05,0-4.48-.96-5.85-5.14-7.27-3.29-1.12-6.6-2.17-10.36-3.41,0,7.48-.07,14.55,.1,21.62,.02,.71,1.38,1.54,2.27,2.06,5.85,3.38,8.77,10.04,7.07,16.35-1.8,6.7-7.47,11.1-14.25,11.06-6.61-.04-12.29-4.48-14.04-10.98-1.69-6.3,1.13-13.17,7.09-16.3,2-1.05,2.51-2.21,2.47-4.27-.11-5.86-.04-11.73-.04-18.36-2.8,2.09-5.15,3.82-7.48,5.57-6.11,4.58-9.41,4.57-15.52-.03-2.72-2.05-5.57-3.94-8.13-6.17-2.18-1.89-4.16-2.32-6.96-1.26-3.9,1.47-7.38-1.3-6.37-5.01,.4-1.48,2.06-3.12,3.53-3.73,6.1-2.51,6-2.38,6.21-8.89,.13-3.89-.64-6.71-3.94-9.52-7.04-5.99-10.69-14.06-10.92-23.38-.16-6.8-.42-13.66,.24-20.41,1.05-10.82,10.46-19.64,22.26-20.5,8.5-.62,17.15-.49,25.63,.31,11.43,1.08,20.49,11.62,20.6,23.09,.07,7.1,.22,14.26-.52,21.31-.91,8.78-5.58,15.76-12.28,21.48-1.06,.9-1.81,2.64-1.93,4.05-.28,3.27-.09,6.59-.09,10.26,5.39,1.8,10.75,3.84,16.24,5.37,6.62,1.85,11.45,5.41,13.52,12.18v42.12Zm-74.38-107.85c0,2.48-.03,4.95,0,7.43,.18,12.91,10.27,23.49,23.27,24.42,13.02,.94,24.74-8.07,26.32-20.92,.81-6.61,.82-13.4,.42-20.06-.5-8.22-6.8-13.75-15-13.89-6.81-.11-13.62-.14-20.43,.02-8.28,.2-14.47,6.65-14.59,14.95-.04,2.68,0,5.37,0,8.05Zm15.14,40.84c-.28,3.23-.66,6.98-.85,10.75-.03,.61,.68,1.42,1.25,1.87,2.58,2.04,5.16,4.09,7.91,5.88,.75,.49,2.35,.54,3.08,.06,2.83-1.85,5.49-3.97,8.17-6.05,.51-.4,1.2-1.08,1.17-1.59-.2-3.84-.57-7.67-.84-10.92h-19.9Zm24.55,55.05c-.24,2.81,2.1,5.47,4.96,5.64,2.67,.16,5.22-2.08,5.49-4.83,.25-2.63-1.97-5.29-4.68-5.59-2.84-.31-5.53,1.91-5.77,4.77Z"/>
    <path d="M29.68,474.21v-23.64c-6.08,2.1-12,3.97-17.76,6.23-2.37,.93-2.65,3.43-2.64,5.83,.03,11.25,.01,22.5,.01,33.76,0,.72,.03,1.45,0,2.17-.14,2.84-2.01,4.79-4.59,4.81-2.58,.02-4.58-1.92-4.64-4.74-.08-4.02-.03-8.05-.03-12.08,0-8.36-.02-16.72,0-25.08,.03-6.82,3.75-12.06,10.23-14.29,6.42-2.21,12.88-4.29,19.5-6.49,0-3.88,.08-7.69-.06-11.49-.03-.86-.69-1.92-1.39-2.49-9.32-7.52-13.71-17.25-13.44-29.19,.13-5.78,0-11.56,.03-17.34,.04-10.67,6.68-19.17,17.24-19.88,11.7-.78,23.53-.63,35.23,.14,9.16,.61,16.08,8.64,16.24,17.79,.17,9.37,.22,18.8-.72,28.1-.81,8.07-5.46,14.6-11.78,19.68-1.73,1.39-2.42,2.8-2.27,4.96,.17,2.47,.17,4.96,0,7.43-.12,1.81,.62,2.62,2.25,3.06,1.59,.42,3.17,.92,4.68,1.56,2.49,1.06,3.55,3.37,2.83,5.81-.67,2.26-3.33,4.08-5.64,2.97-3.85-1.85-6.35-.15-9.05,2.1-2.45,2.04-5.09,3.87-7.66,5.77-5.05,3.73-8.7,3.72-13.79,0-.91-.66-1.83-1.32-3.1-2.24v16.82c1.97,0,3.91-.11,5.84,.02,4.78,.32,8.51,4.06,8.7,8.83,.15,3.71,.13,7.43,.01,11.15-.13,4.16-2.44,6.92-6.16,8.48-3.57,1.49-6.77,.38-7.81-2.54-1-2.81,.63-5.15,4.58-6.45v-9.99H24.35v10.06c.46,.13,.95,.22,1.4,.39,2.62,.94,3.74,2.83,3.28,5.55-.4,2.35-2.67,3.79-5.38,3.61-4.63-.32-8.61-4.46-8.74-9.26-.09-3.4-.06-6.81-.01-10.22,.08-5.4,3.89-9.37,9.26-9.64,1.73-.09,3.47-.01,5.52-.01Zm9.52-88.64c-4.64,3.47-9.07,6.66-13.34,10.06-.88,.7-1.59,2.16-1.61,3.28-.18,10.78,6.53,20.38,16.6,24.03,10.1,3.66,21.27,.54,28.08-7.99,3.68-4.62,5.65-9.87,5.31-16.03-13.1-1.05-24.62-5.6-35.05-13.36Zm35.2,3.94c0-3.38,.02-6.36,0-9.33-.05-6.68-4.06-10.72-10.82-10.76-9.48-.05-18.97-.07-28.46,0-8.17,.06-13.06,7.24-10.33,15.17,2.34-1.74,4.64-3.46,6.96-5.17,5.75-4.25,8.92-4.26,14.78-.16,8.25,5.78,17.38,9.22,27.86,10.26Zm-35.05,43.79c-.27,3.36-.62,7.02-.82,10.68-.03,.55,.48,1.32,.97,1.69,3.19,2.41,6.42,6.54,9.68,6.59,3.22,.05,6.5-4.07,9.75-6.36,.25-.18,.56-.34,.7-.59,.23-.41,.52-.9,.49-1.34-.27-3.76-.61-7.51-.87-10.67h-19.9Z"/>
    <path d="M158.48,389.23c-6.09-.25-11.82-1.66-16.8-5.38-2.81-2.1-3.45-4.54-1.9-6.88,1.61-2.42,4.32-2.68,7.28-.79,7.62,4.85,15.29,4.86,22.93,.06,3.04-1.91,5.66-1.73,7.3,.65,1.66,2.4,.98,4.94-1.99,7.11-5.01,3.66-10.75,5.04-16.84,5.23Z"/>
    <path d="M128.99,352.13c0-.62-.03-1.24,0-1.85,.18-3.05,2.02-5.16,4.59-5.28,2.65-.12,4.71,2.04,4.9,5.26,.09,1.44,.1,2.89-.03,4.32-.28,2.95-2.12,4.76-4.69,4.76-2.65,0-4.54-1.99-4.76-5.05-.05-.72,0-1.44,0-2.16Z"/>
    <path d="M188.31,352.34c-.15,1.22-.16,2.47-.48,3.64-.63,2.28-2.33,3.42-4.62,3.32-2.29-.1-3.96-1.35-4.28-3.71-.27-1.92-.32-3.91-.18-5.84,.2-2.84,2.28-4.8,4.73-4.75,2.45,.04,4.42,2.06,4.69,4.86,.08,.82,.01,1.65,.01,2.47,.05,0,.09,0,.14,.01Z"/>
  </g>
  <g>
    <path d="M705.89,517c.22-.81,.38-1.64,.66-2.42,.81-2.24,2.02-4.28,3.17-6.35,.29-.52,.59-1.04,.88-1.55,.29-.5,.64-.65,1.02-.42,.35,.21,.4,.59,.13,1.07-1.07,1.97-2.16,3.92-3.2,5.9-.7,1.33-1.18,2.74-1.34,4.26-.19,1.88,.64,3.45,2.29,4.22,1.87,.87,3.53,.56,4.88-.9,1.17-1.26,1.83-2.8,2.23-4.44,.83-3.35,1.6-6.72,2.36-10.09,.35-1.54,.62-3.1,.91-4.66,.02-.13-.02-.36-.09-.39-1.17-.47-2.35-.92-3.55-1.39-.74,1.22-1.47,2.41-2.19,3.6-.2,.34-.4,.67-.61,1.01-.29,.47-.64,.61-1,.39-.36-.22-.41-.6-.14-1.06,.4-.67,.81-1.34,1.22-2.03-.08-.06-.15-.12-.21-.16-1.06-.67-1.48-1.69-1.22-2.93,.02-.12-.03-.31-.11-.38-1.43-1.1-1.61-2.59-.45-4.04-.35-.54-.57-1.13-.49-1.8,.07-.66,.36-1.22,.83-1.69,.11-.11,.19-.32,.17-.47-.18-1.24,.44-2.38,1.6-2.85,.23-.09,.33-.19,.38-.45,.18-1.06,1.09-1.91,2.16-2.05,.17-.02,.34-.05,.53-.07,.05-.28,.07-.56,.14-.82,.34-1.32,1.37-2.21,2.8-2.39,.37-.05,.61-.19,.82-.49,.81-1.12,2-1.49,3.31-1.03,.34,.12,.61,.06,.9-.12,.92-.59,1.85-.57,2.81-.06,.23,.12,.54,.12,.82,.13,.43,.01,.86,0,1.29-.04,.29-.02,.61-.02,.87-.14,.97-.45,1.89-.43,2.76,.2,.29,.21,.56,.24,.9,.17,1.28-.28,2.07,.06,2.78,1.17,.07,.11,.19,.23,.31,.26,1.51,.41,2.34,1.38,2.5,2.93,0,.04,0,.09,.02,.13,0,.03,.02,.05,.04,.08,.32,.06,.66,.08,.97,.19,.94,.33,1.5,1,1.73,1.97,.04,.15,.17,.33,.31,.38,1.22,.53,1.8,1.58,1.63,2.91-.02,.12,.03,.29,.11,.38,1.08,1.18,1.21,2.14,.42,3.54,.54,.63,.86,1.35,.72,2.22-.14,.86-.6,1.5-1.36,1.93,.42,1.45-.04,2.55-1.36,3.35,.35,.58,.7,1.16,1.04,1.75,.11,.19,.23,.37,.32,.57,.14,.33,.01,.6-.27,.79-.28,.18-.56,.13-.79-.1-.11-.11-.19-.26-.27-.39-.91-1.49-1.81-2.98-2.74-4.5-.96,.37-1.89,.73-2.82,1.09-.88,.34-.91,.35-.71,1.28,.92,4.32,1.84,8.63,2.81,12.94,.39,1.73,.94,3.42,1.97,4.9,.66,.94,1.45,1.72,2.6,2.01,2.81,.71,5.48-1.64,5.19-4.53-.16-1.53-.64-2.95-1.34-4.3-.96-1.84-1.97-3.66-2.96-5.48-.09-.17-.19-.33-.28-.49-.24-.44-.16-.83,.21-1.02,.35-.19,.71-.07,.94,.36,1.12,2.05,2.27,4.09,3.33,6.18,.47,.91,.8,1.9,1.1,2.88,.4,1.31,.48,2.66,.11,4-.72,2.53-3.02,3.7-4.8,3.78-2.31,.12-4.63,.06-6.94,.07-.47,0-.76-.29-.75-.68,0-.38,.31-.65,.77-.66,.93,0,1.86,0,2.87,0-.28-.31-.51-.55-.73-.82-1.2-1.46-1.84-3.19-2.33-4.97-.35-1.26-.66-2.53-.97-3.8-.07-.29-.19-.42-.5-.49-1.02-.23-2.02-.51-3.04-.75-.15-.04-.38-.02-.48,.08-1.28,1.2-2.86,1.72-4.55,1.87-1.93,.17-3.76-.23-5.41-1.31-.05-.03-.11-.06-.14-.1-.49-.63-1.05-.62-1.77-.33-.66,.27-1.4,.4-2.11,.51-.37,.06-.46,.23-.54,.53-.4,1.56-.78,3.13-1.24,4.67-.54,1.81-1.35,3.49-2.82,4.9h.61c6.57,0,13.13,0,19.7,0,.19,0,.38,0,.56,.05,.32,.09,.49,.34,.47,.65-.02,.31-.2,.55-.53,.6-.16,.03-.32,.03-.48,.03-7.8,0-15.61,0-23.41,0-1.84,0-3.46-.58-4.71-1.98-.62-.69-.96-1.51-1.14-2.42-.02-.1-.06-.19-.09-.28,0-.61,0-1.22,0-1.83Zm36.38-16.49c.71-.23,1.02-.83,.82-1.58-.23-.89-.09-1.26,.67-1.76,.7-.46,.83-1.27,.3-1.92-.58-.72-.61-1.11-.14-1.89,.33-.56,.3-1.21-.18-1.59-.62-.49-.77-1.05-.62-1.8,.13-.64-.32-1.3-.94-1.35-.82-.07-.97-.43-.99-1.14-.02-.74-.5-1.21-1.24-1.24-.97-.04-1.49-.55-1.55-1.52-.06-.96-.67-1.61-1.65-1.72-.42-.05-.68-.21-.86-.61-.36-.83-.69-.98-1.58-.79-.65,.14-1.24,.05-1.77-.37-.48-.37-.97-.41-1.5-.11-.51,.29-1.05,.39-1.64,.25-.22-.05-.47-.06-.69,0-.7,.19-1.34,.1-1.96-.29-.42-.26-.87-.26-1.28,.01-.71,.48-1.43,.55-2.24,.26-.62-.23-1.26-.03-1.62,.51-.47,.71-1.11,1.06-1.95,1.15-.9,.09-1.51,.8-1.57,1.7-.06,.97-.58,1.49-1.55,1.52-.41,.01-.78,.14-.97,.49-.16,.29-.24,.64-.28,.98-.07,.59-.22,.8-.77,.88-.9,.15-1.32,.7-1.14,1.61,.13,.63-.06,1.1-.55,1.49-.54,.43-.63,1.07-.27,1.68,.47,.78,.44,1.17-.14,1.89-.51,.64-.4,1.44,.27,1.9,.82,.56,.93,.84,.69,1.83-.17,.73,.15,1.31,.87,1.55,.32-.51,.62-1.04,.97-1.53,.2-.28,.47-.51,.74-.8,0-.43,.03-.97,0-1.5-.12-1.73,.39-3.23,1.67-4.41,1.36-1.25,2.76-2.46,4.15-3.68,.54-.47,1.17-.58,1.83-.28,.68,.3,1.02,.86,1.02,1.59,0,.43-.08,.86-.13,1.29,1.69,1.28,6.12,1.17,7.51-.06-.04-.18-.11-.36-.13-.54-.03-.32-.07-.64-.03-.95,.22-1.4,1.77-1.95,2.86-1.02,1.27,1.09,2.5,2.22,3.77,3.31,1.51,1.3,2.19,2.93,2,4.92-.05,.49,0,.98,0,1.41,.95,.5,1.11,1.57,1.76,2.24Zm-18.69-8.21c-.66,1.08-1.39,2.13-1.97,3.26-.73,1.42-.63,2.99-.6,4.53,0,.07,.03,.16,.08,.19,.37,.26,.31,.63,.25,.99-.06,.37-.18,.74-.21,1.11-.02,.26,0,.58,.15,.77,.63,.83,1.23,1.71,1.99,2.41,1.85,1.68,4.05,2.38,6.53,1.82,2.43-.55,4.13-2.1,5.43-4.16,.19-.31,.24-.6,.15-.95-.1-.42-.17-.85-.22-1.29-.02-.16,0-.41,.09-.49,.32-.26,.26-.59,.26-.91,0-.44,0-.87,0-1.31-.02-2.39-1.31-4.2-2.67-5.94-3.08,1.48-6.1,1.48-9.25-.05Zm.16,18.12c2.3,2.3,7.16,1.95,8.85-.02-.4-.7-.79-1.39-1.2-2.11-2.13,.83-4.29,.79-6.41-.05-.42,.74-.82,1.45-1.24,2.18Zm13.12-10.69c.7-.27,1.36-.52,2.02-.79,.1-.04,.2-.2,.21-.31,.05-.81,.09-1.63,.11-2.44,.03-1.21-.44-2.2-1.32-3.01-.37-.35-.76-.68-1.14-1.01-.94-.83-1.87-1.66-2.82-2.47-.12-.1-.37-.18-.49-.13-.13,.06-.25,.3-.23,.45,.03,.29,.09,.61,.25,.85,.59,.9,1.24,1.76,1.85,2.64,.77,1.13,1.29,2.37,1.43,3.74,.08,.81,.09,1.62,.13,2.49Zm-17.17,.01c0-.42,0-.78,0-1.14-.04-1.99,.56-3.77,1.71-5.38,.56-.78,1.13-1.55,1.65-2.36,.16-.25,.23-.59,.26-.89,.01-.14-.12-.37-.26-.44-.1-.05-.34,.03-.45,.13-1.36,1.18-2.72,2.37-4.05,3.58-.85,.77-1.27,1.76-1.24,2.91,.02,.81,.06,1.63,.11,2.44,0,.11,.08,.27,.16,.31,.68,.28,1.37,.54,2.11,.83Zm17.42,11.15c-.45-2.14-.86-4.11-1.29-6.17-.91,1.24-1.96,2.21-3.27,3.01,.42,.68,.82,1.33,1.24,1.98,.07,.1,.18,.21,.29,.24,.97,.31,1.95,.61,3.03,.94Zm-17.7-.06c.93-.27,1.76-.51,2.59-.77,.16-.05,.35-.12,.45-.24,.55-.66,.98-1.39,1.23-2.08-1.06-.99-2.05-1.93-3.03-2.85-.39,1.88-.8,3.84-1.24,5.95Z"/>
    <path d="M711.26,482.74c-.24,.29-.39,.52-.58,.69-.61,.54-1.54,.34-1.85-.42-.28-.7-.51-1.42-.73-2.14-.13-.41,.08-.75,.46-.85,.34-.1,.67,.08,.81,.48,.2,.57,.39,1.14,.71,1.8,.14-.18,.26-.38,.43-.54,.67-.64,1.61-.45,1.95,.4,.29,.73,.54,1.47,.8,2.21,.12,.35-.05,.7-.37,.82-.34,.13-.71-.01-.86-.38-.25-.63-.47-1.27-.76-2.07Z"/>
    <path d="M745.58,482.76c-.26,.73-.47,1.31-.68,1.89-.18,.5-.53,.69-.92,.54-.37-.14-.49-.51-.33-.99,.23-.64,.46-1.28,.69-1.92,.37-.98,1.32-1.2,2.07-.46,.14,.14,.22,.34,.33,.51l.16-.12c.19-.54,.37-1.09,.56-1.63,.17-.49,.48-.68,.87-.55,.4,.14,.53,.47,.37,.96-.2,.61-.4,1.21-.61,1.81-.36,1.01-1.32,1.22-2.09,.47-.13-.13-.24-.29-.43-.52Z"/>
    <path d="M710.31,501.01c-.53,0-.84-.25-.84-.67,0-.42,.31-.66,.85-.66,.54,0,.86,.24,.87,.64,.01,.42-.33,.69-.88,.68Z"/>
    <path d="M745.89,501.88c-.52,0-.85-.26-.85-.67,0-.41,.32-.66,.85-.66,.54,0,.85,.23,.86,.64,.01,.43-.31,.69-.87,.68Z"/>
    <path d="M747.93,502.67c0,.52-.22,.84-.61,.85-.37,.01-.6-.19-.7-.54-.14-.53,.05-1.01,.45-1.14,.48-.16,.86,.2,.86,.83Z"/>
    <path d="M708.3,501.8c0-.52,.21-.84,.6-.86,.37-.02,.61,.18,.7,.52,.15,.52-.04,1-.44,1.15-.48,.18-.86-.18-.86-.81Z"/>
    <path d="M707.59,501.01c-.54,0-.83-.23-.83-.66,0-.44,.28-.66,.83-.66,.57,0,.87,.24,.86,.68-.01,.42-.32,.65-.86,.65Z"/>
    <path d="M748.65,500.56c.55,0,.83,.22,.84,.66,0,.44-.3,.67-.87,.67-.52,0-.83-.26-.82-.68,0-.43,.3-.65,.85-.64Z"/>
    <path d="M708.3,498.88c0-.56,.21-.84,.65-.84,.43,0,.67,.29,.68,.82,0,.55-.25,.87-.68,.87-.43,0-.65-.3-.65-.85Z"/>
    <path d="M747.93,499.74c0,.57-.23,.88-.67,.87-.42,0-.65-.32-.65-.85,0-.54,.23-.83,.66-.84,.44,0,.66,.27,.67,.82Z"/>
  </g>
  <g>
    <path d="M757.74,624.06c3.62,0,7.12,0,10.63,0,1.2,0,2.17,.75,2.53,1.89,.33,1.07-.05,2.29-1.04,2.9-.47,.29-1.07,.47-1.62,.48-3.17,.04-6.35,.02-9.52,.02-.3,0-.59,0-.97,0,0,.37,0,.67,0,.96,0,3.17,0,6.35,0,9.52,0,1.61-1.12,2.77-2.65,2.77-1.52,0-2.64-1.16-2.64-2.78,0-3.45,0-6.9,0-10.47-.32,0-.61,0-.9,0-3.17,0-6.35,0-9.52,0-1.67,0-2.84-1.11-2.83-2.67,0-1.53,1.16-2.61,2.8-2.62,3.45,0,6.89,0,10.45,0,0-.34,0-.63,0-.92,0-3.17,0-6.35,0-9.52,0-1.64,1.08-2.79,2.61-2.81,1.57-.01,2.68,1.15,2.69,2.81,0,3.15,0,6.29,0,9.44,0,.3,0,.6,0,1Z"/>
    <path d="M693.79,581.82c0-3.24,0-6.47,0-9.71,0-2.53,1.37-3.9,3.88-3.91,6.51,0,13.02,0,19.53,0,2.51,0,3.91,1.39,3.91,3.88,0,6.51,0,13.02,0,19.53,0,2.52-1.38,3.91-3.89,3.91-6.51,0-13.02,0-19.53,0-2.52,0-3.9-1.39-3.91-3.89,0-3.27,0-6.55,0-9.82Z"/>
    <path d="M755.17,595.52c-3.2,0-6.4,0-9.61,0-2.58,0-3.95-1.37-3.95-3.95,0-6.47,0-12.95,0-19.42,0-2.59,1.36-3.95,3.95-3.95,6.48,0,12.95,0,19.43,0,2.58,0,3.95,1.37,3.95,3.95,0,6.47,0,12.95,0,19.42,0,2.59-1.36,3.95-3.95,3.95-3.27,0-6.55,0-9.82,0Z"/>
    <path d="M707.41,616.01c3.27,0,6.55,0,9.82,0,2.5,0,3.89,1.39,3.89,3.91,0,6.51,0,13.02,0,19.53,0,2.51-1.38,3.89-3.91,3.89-6.51,0-13.02,0-19.53,0-2.5,0-3.89-1.4-3.89-3.91,0-6.51,0-13.02,0-19.53,0-2.52,1.38-3.88,3.9-3.89,3.24,0,6.48,0,9.71,0Z"/>
  </g>
</svg>