<?xml version="1.0" encoding="UTF-8"?>
<svg id="Layer_1" data-name="Layer 1" xmlns="http://www.w3.org/2000/svg" viewBox="0 0 783.48 397.15">
  <g>
    <path d="M346.32,161.35c-2.17,5-3.62,10.51-6.67,14.9-6.96,10.03-17.11,14.5-29.34,14.32-4.36-.06-4.37,.01-4.37,4.37,0,16.65,0,33.3,0,49.95,0,1.24,.31,2.66-.19,3.67-.89,1.78-1.97,4.11-3.55,4.73-1.6,.63-4.35,.07-5.81-1.02-2.58-1.92-4.59-4.6-6.79-7.01-7.28-7.98-14.55-15.99-21.8-24-.52-.57-.89-1.27-1.31-1.89-1.55,5.24-2.32,10.22-4.44,14.55-6.5,13.32-17.72,19.61-32.37,19.7-29.86,.18-59.73,.22-89.6,.17-3.31,0-5.57,.93-7.8,3.41-16.72,18.57-33.58,37.02-50.41,55.5-2.34,2.57-4.57,5.72-8.75,4.21-4.34-1.57-4.01-5.44-4.01-9.09,.02-16.65,0-33.3,0-49.95,0-1.21,0-2.41,0-3.99-3.93,0-7.51,0-11.08,0-7.33,0-14.66-.24-21.97,.05-17.02,.66-32.21-10.99-35.48-27.95-.08-.41-.38-.78-.58-1.18,0-44.11,0-88.22,0-132.33,1.11-3.01,1.94-6.17,3.37-9.02,6.64-13.26,17.7-19.6,32.34-19.79,13.74-.18,27.48-.08,41.23-.11,1.18,0,2.36,0,3.73,0,0-9.88-.09-19.2,.02-28.53C80.92,14.88,95.97,.03,116.1,0c14.31-.02,28.61,0,42.92,.02,50.24,.09,100.48,.22,150.72,.25,12.39,0,22.88,4.16,29.96,14.49,3.03,4.42,4.46,9.92,6.62,14.92V161.35ZM80.95,296.36c1.35-1.45,2.01-2.15,2.66-2.87,14.24-15.66,28.53-31.27,42.68-47.01,2.62-2.92,5.42-4.17,9.39-4.17,31.33-.04,62.66-.53,93.99-.34,13.61,.08,24.39-10.2,24.27-24.39-.33-39.37-.1-78.75-.14-118.12,0-2.34-.05-4.77-.62-7.01-2.88-11.28-11.53-17.54-24.06-17.51-64.35,.16-128.71,.48-193.06,.42-13.36-.01-24.59,9.17-24.56,24.52,.08,39.37,0,78.75,.04,118.12,.02,14.85,9.71,24.37,24.65,24.39,12.06,.02,24.12,0,36.18,0,6.76,0,8.57,1.8,8.57,8.6,.01,13.61,0,27.22,0,40.84,0,1.18,0,2.35,0,4.55Zm11.78-232.83c1.78,0,3.23,0,4.69,0,45.09-.02,90.17-.14,135.26,.07,4.44,.02,9.21,1.36,13.24,3.31,13.37,6.45,19.67,17.67,19.71,32.31,.1,32.96,.06,65.93-.02,98.89,0,2.56,.75,4.42,2.47,6.28,7.97,8.58,15.82,17.27,23.7,25.93,.64,.71,1.12,1.58,1.67,2.37,.28-.2,.57-.39,.85-.59,0-1.09,0-2.19,0-3.28,0-14.06-.01-28.13,0-42.19,0-5.63,2.09-7.66,7.81-7.68,2.59-.01,5.18,0,7.78,0,15.41-.02,24.91-9.41,24.92-24.76,.02-39.15,.03-78.31-.03-117.46,0-2.67-.28-5.42-.97-7.99-2.77-10.32-11.35-16.62-22.6-16.66-33.59-.11-67.18-.16-100.77-.25-31.11-.09-62.22-.23-93.33-.29-12.8-.03-23.28,7.63-24.18,18.94-.86,10.82-.19,21.76-.19,33.06Z"/>
    <path d="M132.54,167.23c-23.88,0-47.77,0-71.65-.02-1.56,0-3.17-.09-4.67-.47-2.73-.68-4.14-2.57-4.15-5.4-.01-2.82,1.39-4.71,4.11-5.44,1.28-.35,2.66-.47,3.99-.47,48.44-.02,96.89-.02,145.33,0,1.44,0,2.95,.16,4.31,.59,2.56,.82,3.8,2.92,3.73,5.44-.07,2.51-1.37,4.57-4,5.23-1.5,.38-3.11,.51-4.67,.51-24.11,.03-48.22,.02-72.33,.02Z"/>
    <path d="M132.96,201.77c-24.44,0-48.89,0-73.33,0-4.88,0-7.55-2.06-7.57-5.76-.01-2.97,1.44-4.93,4.34-5.59,1.41-.32,2.9-.37,4.36-.37,47.99-.02,95.98-.02,143.97,0,1.12,0,2.26,0,3.37,.17,3.34,.48,5.55,2.82,5.51,5.75-.03,2.89-2.34,5.3-5.62,5.73-1.11,.15-2.25,.08-3.37,.08-23.88,0-47.76,0-71.64,0Z"/>
    <path d="M95.02,120.9c11.83,0,23.65,0,35.48,.01,1.23,0,2.49,.05,3.67,.35,2.87,.75,4.46,2.82,4.32,5.68-.15,2.96-1.84,5.02-5.01,5.41-1.11,.14-2.24,.2-3.36,.2-23.2,.01-46.4,.01-69.6,0-1.23,0-2.48-.04-3.7-.24-2.78-.44-4.41-2.12-4.71-4.92-.32-2.96,1.02-5.04,3.8-5.98,1.24-.42,2.65-.49,3.98-.5,11.71-.04,23.43-.02,35.14-.02Z"/>
  </g>
  <g>
    <path d="M727.18,77.04c.77,.19,1.54,.36,2.3,.58,6.78,1.92,11.32,7.61,12.02,14.98,.05,.49,.35,1.08,.73,1.39,6.79,5.69,10.17,12.96,10.22,21.8,0,.76,0,1.52,0,2.28-.02,1.58,.13,2.98,1.04,4.49,2.3,3.81-.47,8.55-5.11,9.02-1.12,.11-1.51,.35-1.7,1.57-1.01,6.45-4.3,11.5-9.77,15.09-.65,.43-.93,.85-.91,1.63,.06,1.78,.04,3.57,.01,5.35-.04,1.9,.83,3.15,2.56,3.89,5.33,2.27,10.66,4.54,15.98,6.84,4.67,2.02,7.01,5.61,7.02,10.69,.01,4.86,0,9.72,0,14.58,0,.38,.04,.78-.06,1.13-.25,.91-.86,1.44-1.84,1.35-.91-.09-1.44-.63-1.53-1.55-.04-.38-.02-.76-.02-1.14,0-4.75,0-9.5,0-14.24,0-3.69-1.59-6.29-5.07-7.71-2.88-1.17-5.71-2.44-8.57-3.66-.34-.14-.68-.27-1.11-.44v14.54c2.16,.73,3.89,2.03,4.82,4.24,.64,1.52,.76,3.08,.34,4.68-.85,3.23-3.84,5.39-7.34,5.31-3.14-.08-6.09-2.58-6.69-5.69-.73-3.75,1-6.57,5.27-8.58v-13.32c-.42,.25-.73,.43-1.03,.62-3.35,2.23-6.69,4.47-10.05,6.68-2.67,1.77-4.51,1.75-7.14,0-3.63-2.42-7.26-4.83-11.03-7.34v9.6c1.68,0,3.33,0,4.99,0,3.69,.02,5.85,2.18,5.88,5.89,.02,2.16,.03,4.33,0,6.49-.06,3.16-2.27,5.58-5.1,5.64-1.15,.02-1.93-.56-2.03-1.55-.1-.94,.57-1.67,1.72-1.87,1.36-.23,1.89-.84,1.9-2.23,.02-2.24,.02-4.48,0-6.72-.01-1.53-.7-2.22-2.23-2.22-4.63-.01-9.27,0-13.9,0-1.54,0-2.27,.67-2.3,2.19-.04,2.28-.04,4.56,0,6.84,.02,1.31,.62,1.92,1.91,2.15,1.26,.22,1.83,.89,1.69,1.96-.13,.98-.88,1.5-2.09,1.45-2.62-.11-4.89-2.42-4.96-5.17-.07-2.54-.06-5.09,0-7.63,.07-2.91,2.34-5.13,5.27-5.2,1.82-.04,3.64,0,5.56,0v-10.71c-.84,.34-1.66,.67-2.48,1.01-2.4,1.03-4.79,2.09-7.21,3.09-3.42,1.41-5.02,3.98-5.02,7.63,0,4.86,0,9.72,0,14.58,0,.45,.03,.95-.13,1.35-.31,.78-.96,1.19-1.82,1.05-1.01-.17-1.49-.85-1.49-1.85,0-3.34-.02-6.68,0-10.03,.02-2.43-.13-4.88,.17-7.28,.51-4.1,2.92-6.91,6.69-8.53,5.22-2.25,10.45-4.48,15.67-6.71,2.4-1.02,3.01-1.93,3.02-4.5,0-1.71,.05-3.42-.03-5.13-.02-.44-.3-1.03-.66-1.26-5.79-3.82-9.23-9.1-10.06-16.01-.08-.69-.44-.73-.99-.78-3.23-.3-5.53-2-6.27-4.6-1.12-3.94,1.76-7.84,5.94-8.01,.87-.04,1.75,0,2.62-.01,1.38-.03,1.97-.57,2.14-1.96,.28-2.22,1.54-3.45,3.75-3.76,9.86-1.39,19.01-4.71,27.46-9.98,.23-.14,.44-.3,.67-.43,.9-.49,1.77-.32,2.32,.45,.58,.8,.44,1.75-.42,2.4-.75,.56-1.56,1.04-2.44,1.63,.5,.36,.93,.64,1.33,.96,2.52,2.05,3.71,4.73,3.72,7.96,0,2.25,.5,2.73,2.73,2.74,.91,0,1.82,0,2.75,0,.02-.02,.11-.07,.12-.12,1.33-15.24-8.44-24.65-18.84-26.95-13.06-2.89-26.52,6.23-28.48,19.46-.1,.67-.15,1.36-.25,2.03-.17,1.19-.93,1.83-2,1.7-.99-.12-1.55-.91-1.45-2.07,.71-7.72,4.05-14.05,10.03-18.97,.53-.44,.79-.88,.85-1.6,.71-8.06,5.84-13.68,13.86-15.27,.14-.03,.27-.12,.41-.18,1.37,0,2.74,0,4.1,0Zm-2.05,71.32c1.35-.18,2.72-.25,4.04-.56,8.17-1.93,13.7-8.51,14.27-16.9,.17-2.44,.51-2.75,2.99-2.75,.53,0,1.06,.01,1.59-.02,1.6-.08,2.73-1.22,2.76-2.75,.03-1.44-1.06-2.66-2.6-2.8-1.21-.11-2.43-.04-3.63-.17-2.5-.27-4.37-2.19-4.64-4.7-.08-.79-.07-1.59-.13-2.39-.17-2.08-1.21-3.65-2.96-4.72-1.39-.85-2.76-1.03-4.38-.25-6.66,3.22-13.67,5.34-21.01,6.32-.76,.1-1,.42-1.1,1.13-.35,2.56-2.17,4.35-4.72,4.62-1.05,.11-2.12,.06-3.18,.1-1.76,.07-2.95,1.2-2.95,2.8,0,1.56,1.22,2.73,2.98,2.8,.83,.04,1.67-.02,2.5,.03,1.04,.07,1.69,.61,1.79,1.7,.04,.42,.06,.83,.09,1.25,.66,9.72,8.58,17.13,18.3,17.24Zm-7.39,2.12c0,1.66,.02,3.17,0,4.68-.05,3.37-1.56,5.79-4.69,7.13-.36,.15-.7,.34-1.15,.55,4.09,2.73,8.06,5.38,12.04,8.03,.81,.54,1.64,.5,2.45-.04,1.29-.87,2.59-1.73,3.88-2.59,2.68-1.78,5.36-3.57,8.14-5.42-.61-.27-1.09-.48-1.57-.71-2.44-1.17-3.94-3.06-4.21-5.78-.14-1.43-.08-2.88-.11-4.32,0-.47,0-.93,0-1.55-5.01,1.68-9.82,1.67-14.77,.02Zm19.86-59.52c.03-5.17-6.36-10.5-12.47-10.5-6.12,0-12.52,5.35-12.47,10.5,8.31-3.98,16.63-3.98,24.95,0Zm.25,95.58c0,2.09,1.69,3.79,3.75,3.77,2.05-.02,3.74-1.78,3.71-3.83-.03-2.03-1.69-3.68-3.71-3.7-2.08-.02-3.74,1.66-3.74,3.76Z"/>
    <path d="M783.48,179.83c-.56,.79-1.22,1.4-2.28,1.02-1.04-.38-1.15-1.25-1.15-2.23,.02-4.18,.01-8.35,0-12.53,0-1.65-.35-2.15-1.89-2.67-1.21-.41-2.43-.8-3.81-1.25,0,2.75-.02,5.35,.04,7.95,0,.26,.51,.57,.84,.76,2.15,1.25,3.23,3.7,2.6,6.01-.66,2.46-2.75,4.08-5.24,4.07-2.43-.01-4.52-1.65-5.16-4.04-.62-2.32,.42-4.85,2.61-6,.73-.39,.93-.81,.91-1.57-.04-2.16-.01-4.32-.01-6.76-1.03,.77-1.89,1.41-2.75,2.05-2.25,1.68-3.46,1.68-5.71,0-1-.75-2.05-1.45-2.99-2.27-.8-.7-1.53-.85-2.56-.46-1.43,.54-2.72-.48-2.34-1.84,.15-.55,.76-1.15,1.3-1.37,2.24-.92,2.21-.88,2.29-3.27,.05-1.43-.24-2.47-1.45-3.5-2.59-2.2-3.93-5.17-4.02-8.6-.06-2.5-.15-5.03,.09-7.51,.39-3.98,3.85-7.23,8.19-7.54,3.13-.23,6.31-.18,9.43,.11,4.2,.4,7.54,4.28,7.58,8.49,.02,2.61,.08,5.25-.19,7.84-.34,3.23-2.05,5.8-4.52,7.9-.39,.33-.67,.97-.71,1.49-.1,1.2-.03,2.42-.03,3.78,1.98,.66,3.95,1.41,5.98,1.98,2.44,.68,4.21,1.99,4.97,4.48v15.5Zm-27.37-39.68c0,.91-.01,1.82,0,2.73,.07,4.75,3.78,8.64,8.56,8.99,4.79,.34,9.1-2.97,9.68-7.7,.3-2.43,.3-4.93,.15-7.38-.18-3.02-2.5-5.06-5.52-5.11-2.51-.04-5.01-.05-7.52,0-3.05,.07-5.33,2.45-5.37,5.5-.01,.99,0,1.97,0,2.96Zm5.57,15.03c-.1,1.19-.24,2.57-.31,3.95-.01,.22,.25,.52,.46,.69,.95,.75,1.9,1.5,2.91,2.16,.28,.18,.87,.2,1.13,.02,1.04-.68,2.02-1.46,3.01-2.23,.19-.15,.44-.4,.43-.59-.08-1.41-.21-2.82-.31-4.02h-7.32Zm9.03,20.25c-.09,1.03,.77,2.01,1.83,2.08,.98,.06,1.92-.77,2.02-1.78,.09-.97-.73-1.95-1.72-2.06-1.05-.11-2.04,.7-2.12,1.76Z"/>
    <path d="M677.7,170.23v-8.7c-2.24,.77-4.41,1.46-6.54,2.29-.87,.34-.97,1.26-.97,2.14,.01,4.14,0,8.28,0,12.42,0,.27,0,.53,0,.8-.05,1.05-.74,1.76-1.69,1.77-.95,0-1.69-.71-1.71-1.74-.03-1.48,0-2.96,0-4.44,0-3.08,0-6.15,0-9.23,0-2.51,1.38-4.44,3.76-5.26,2.36-.81,4.74-1.58,7.18-2.39,0-1.43,.03-2.83-.02-4.23-.01-.32-.25-.71-.51-.91-3.43-2.77-5.04-6.35-4.95-10.74,.05-2.13,0-4.25,0-6.38,.01-3.93,2.46-7.05,6.34-7.31,4.3-.29,8.66-.23,12.96,.05,3.37,.22,5.92,3.18,5.98,6.55,.06,3.45,.08,6.92-.26,10.34-.3,2.97-2.01,5.37-4.34,7.24-.64,.51-.89,1.03-.84,1.82,.06,.91,.06,1.83,0,2.73-.05,.67,.23,.96,.83,1.12,.58,.16,1.17,.34,1.72,.57,.92,.39,1.31,1.24,1.04,2.14-.25,.83-1.23,1.5-2.07,1.09-1.42-.68-2.33-.06-3.33,.77-.9,.75-1.87,1.42-2.82,2.12-1.86,1.37-3.2,1.37-5.07,0-.34-.24-.67-.49-1.14-.82v6.19c.73,0,1.44-.04,2.15,0,1.76,.12,3.13,1.49,3.2,3.25,.05,1.37,.05,2.74,0,4.1-.05,1.53-.9,2.54-2.27,3.12-1.31,.55-2.49,.14-2.87-.94-.37-1.03,.23-1.9,1.68-2.37v-3.68h-7.42v3.7c.17,.05,.35,.08,.52,.14,.96,.35,1.38,1.04,1.21,2.04-.15,.86-.98,1.4-1.98,1.33-1.7-.12-3.17-1.64-3.22-3.41-.03-1.25-.02-2.51,0-3.76,.03-1.99,1.43-3.45,3.41-3.55,.64-.03,1.28,0,2.03,0Zm3.5-32.61c-1.71,1.28-3.34,2.45-4.91,3.7-.32,.26-.59,.8-.59,1.21-.07,3.97,2.4,7.5,6.11,8.84,3.72,1.35,7.83,.2,10.33-2.94,1.35-1.7,2.08-3.63,1.95-5.9-4.82-.39-9.06-2.06-12.9-4.91Zm12.95,1.45c0-1.25,0-2.34,0-3.43-.02-2.46-1.49-3.94-3.98-3.96-3.49-.02-6.98-.02-10.47,0-3.01,.02-4.81,2.66-3.8,5.58,.86-.64,1.71-1.27,2.56-1.9,2.12-1.57,3.28-1.57,5.44-.06,3.04,2.13,6.39,3.39,10.25,3.77Zm-12.9,16.11c-.1,1.24-.23,2.58-.3,3.93-.01,.2,.18,.49,.36,.62,1.17,.89,2.36,2.41,3.56,2.42,1.19,.02,2.39-1.5,3.59-2.34,.09-.07,.21-.13,.26-.22,.09-.15,.19-.33,.18-.49-.1-1.38-.22-2.76-.32-3.93h-7.32Z"/>
    <path d="M725.09,138.96c-2.24-.09-4.35-.61-6.18-1.98-1.03-.77-1.27-1.67-.7-2.53,.59-.89,1.59-.99,2.68-.29,2.8,1.78,5.63,1.79,8.44,.02,1.12-.7,2.08-.64,2.69,.24,.61,.88,.36,1.82-.73,2.62-1.84,1.35-3.95,1.85-6.2,1.92Z"/>
    <path d="M714.24,125.31c0-.23-.01-.46,0-.68,.07-1.12,.74-1.9,1.69-1.94,.97-.04,1.73,.75,1.8,1.94,.03,.53,.04,1.06-.01,1.59-.1,1.09-.78,1.75-1.73,1.75-.98,0-1.67-.73-1.75-1.86-.02-.26,0-.53,0-.8Z"/>
    <path d="M736.07,125.39c-.06,.45-.06,.91-.18,1.34-.23,.84-.86,1.26-1.7,1.22-.84-.04-1.46-.5-1.58-1.36-.1-.71-.12-1.44-.07-2.15,.07-1.05,.84-1.76,1.74-1.75,.9,.02,1.63,.76,1.72,1.79,.03,.3,0,.61,0,.91,.02,0,.03,0,.05,0Z"/>
  </g>
  <g>
    <path d="M711.34,270.82c.22-.81,.38-1.64,.66-2.42,.81-2.24,2.02-4.28,3.17-6.35,.29-.52,.59-1.04,.88-1.55,.29-.5,.64-.65,1.02-.42,.35,.21,.4,.59,.13,1.07-1.07,1.97-2.16,3.92-3.2,5.9-.7,1.33-1.18,2.74-1.34,4.26-.19,1.88,.64,3.45,2.29,4.22,1.87,.87,3.53,.56,4.88-.9,1.17-1.26,1.83-2.8,2.23-4.44,.83-3.35,1.6-6.72,2.36-10.09,.35-1.54,.62-3.1,.91-4.66,.02-.13-.02-.36-.09-.39-1.17-.47-2.35-.92-3.55-1.39-.74,1.22-1.47,2.41-2.19,3.6-.2,.34-.4,.67-.61,1.01-.29,.47-.64,.61-1,.39-.36-.22-.41-.6-.14-1.06,.4-.67,.81-1.34,1.22-2.03-.08-.06-.15-.12-.21-.16-1.06-.67-1.48-1.69-1.22-2.93,.02-.12-.03-.31-.11-.38-1.43-1.1-1.61-2.59-.45-4.04-.35-.54-.57-1.13-.49-1.8,.07-.66,.36-1.22,.83-1.69,.11-.11,.19-.32,.17-.47-.18-1.24,.44-2.38,1.6-2.85,.23-.09,.33-.19,.38-.45,.18-1.06,1.09-1.91,2.16-2.05,.17-.02,.34-.05,.53-.07,.05-.28,.07-.56,.14-.82,.34-1.32,1.37-2.21,2.8-2.39,.37-.05,.61-.19,.82-.49,.81-1.12,2-1.49,3.31-1.03,.34,.12,.61,.06,.9-.12,.92-.59,1.85-.57,2.81-.06,.23,.12,.54,.12,.82,.13,.43,.01,.86,0,1.29-.04,.29-.02,.61-.02,.87-.14,.97-.45,1.89-.43,2.76,.2,.29,.21,.56,.24,.9,.17,1.28-.28,2.07,.06,2.78,1.17,.07,.11,.19,.23,.31,.26,1.51,.41,2.34,1.38,2.5,2.93,0,.04,0,.09,.02,.13,0,.03,.02,.05,.04,.08,.32,.06,.66,.08,.97,.19,.94,.33,1.5,1,1.73,1.97,.04,.15,.17,.33,.31,.38,1.22,.53,1.8,1.58,1.63,2.91-.02,.12,.03,.29,.11,.38,1.08,1.18,1.21,2.14,.42,3.54,.54,.63,.86,1.35,.72,2.22-.14,.86-.6,1.5-1.36,1.93,.42,1.45-.04,2.55-1.36,3.35,.35,.58,.7,1.16,1.04,1.75,.11,.19,.23,.37,.32,.57,.14,.33,.01,.6-.27,.79-.28,.18-.56,.13-.79-.1-.11-.11-.19-.26-.27-.39-.91-1.49-1.81-2.98-2.74-4.5-.96,.37-1.89,.73-2.82,1.09-.88,.34-.91,.35-.71,1.28,.92,4.32,1.84,8.63,2.81,12.94,.39,1.73,.94,3.42,1.97,4.9,.66,.94,1.45,1.72,2.6,2.01,2.81,.71,5.48-1.64,5.19-4.53-.16-1.53-.64-2.95-1.34-4.3-.96-1.84-1.97-3.66-2.96-5.48-.09-.17-.19-.33-.28-.49-.24-.44-.16-.83,.21-1.02,.35-.19,.71-.07,.94,.36,1.12,2.05,2.27,4.09,3.33,6.18,.47,.91,.8,1.9,1.1,2.88,.4,1.31,.48,2.66,.11,4-.72,2.53-3.02,3.7-4.8,3.78-2.31,.12-4.63,.06-6.94,.07-.47,0-.76-.29-.75-.68,0-.38,.31-.65,.77-.66,.93,0,1.86,0,2.87,0-.28-.31-.51-.55-.73-.82-1.2-1.46-1.84-3.19-2.33-4.97-.35-1.26-.66-2.53-.97-3.8-.07-.29-.19-.42-.5-.49-1.02-.23-2.02-.51-3.04-.75-.15-.04-.38-.02-.48,.08-1.28,1.2-2.86,1.72-4.55,1.87-1.93,.17-3.76-.23-5.41-1.31-.05-.03-.11-.06-.14-.1-.49-.63-1.05-.62-1.77-.33-.66,.27-1.4,.4-2.11,.51-.37,.06-.46,.23-.54,.53-.4,1.56-.78,3.13-1.24,4.67-.54,1.81-1.35,3.49-2.82,4.9h.61c6.57,0,13.13,0,19.7,0,.19,0,.38,0,.56,.05,.32,.09,.49,.34,.47,.65-.02,.31-.2,.55-.53,.6-.16,.03-.32,.03-.48,.03-7.8,0-15.61,0-23.41,0-1.84,0-3.46-.58-4.71-1.98-.62-.69-.96-1.51-1.14-2.42-.02-.1-.06-.19-.09-.28,0-.61,0-1.22,0-1.83Zm36.38-16.49c.71-.23,1.02-.83,.82-1.58-.23-.89-.09-1.26,.67-1.76,.7-.46,.83-1.27,.3-1.92-.58-.72-.61-1.11-.14-1.89,.33-.56,.3-1.21-.18-1.59-.62-.49-.77-1.05-.62-1.8,.13-.64-.32-1.3-.94-1.35-.82-.07-.97-.43-.99-1.14-.02-.74-.5-1.21-1.24-1.24-.97-.04-1.49-.55-1.55-1.52-.06-.96-.67-1.61-1.65-1.72-.42-.05-.68-.21-.86-.61-.36-.83-.69-.98-1.58-.79-.65,.14-1.24,.05-1.77-.37-.48-.37-.97-.41-1.5-.11-.51,.29-1.05,.39-1.64,.25-.22-.05-.47-.06-.69,0-.7,.19-1.34,.1-1.96-.29-.42-.26-.87-.26-1.28,.01-.71,.48-1.43,.55-2.24,.26-.62-.23-1.26-.03-1.62,.51-.47,.71-1.11,1.06-1.95,1.15-.9,.09-1.51,.8-1.57,1.7-.06,.97-.58,1.49-1.55,1.52-.41,.01-.78,.14-.97,.49-.16,.29-.24,.64-.28,.98-.07,.59-.22,.8-.77,.88-.9,.15-1.32,.7-1.14,1.61,.13,.63-.06,1.1-.55,1.49-.54,.43-.63,1.07-.27,1.68,.47,.78,.44,1.17-.14,1.89-.51,.64-.4,1.44,.27,1.9,.82,.56,.93,.84,.69,1.83-.17,.73,.15,1.31,.87,1.55,.32-.51,.62-1.04,.97-1.53,.2-.28,.47-.51,.74-.8,0-.43,.03-.97,0-1.5-.12-1.73,.39-3.23,1.67-4.41,1.36-1.25,2.76-2.46,4.15-3.68,.54-.47,1.17-.58,1.83-.28,.68,.3,1.02,.86,1.02,1.59,0,.43-.08,.86-.13,1.29,1.69,1.28,6.12,1.17,7.51-.06-.04-.18-.11-.36-.13-.54-.03-.32-.07-.64-.03-.95,.22-1.4,1.77-1.95,2.86-1.02,1.27,1.09,2.5,2.22,3.77,3.31,1.51,1.3,2.19,2.93,2,4.92-.05,.49,0,.98,0,1.41,.95,.5,1.11,1.57,1.76,2.24Zm-18.69-8.21c-.66,1.08-1.39,2.13-1.97,3.26-.73,1.42-.63,2.99-.6,4.53,0,.07,.03,.16,.08,.19,.37,.26,.31,.63,.25,.99-.06,.37-.18,.74-.21,1.11-.02,.26,0,.58,.15,.77,.63,.83,1.23,1.71,1.99,2.41,1.85,1.68,4.05,2.38,6.53,1.82,2.43-.55,4.13-2.1,5.43-4.16,.19-.31,.24-.6,.15-.95-.1-.42-.17-.85-.22-1.29-.02-.16,0-.41,.09-.49,.32-.26,.26-.59,.26-.91,0-.44,0-.87,0-1.31-.02-2.39-1.31-4.2-2.67-5.94-3.08,1.48-6.1,1.48-9.25-.05Zm.16,18.12c2.3,2.3,7.16,1.95,8.85-.02-.4-.7-.79-1.39-1.2-2.11-2.13,.83-4.29,.79-6.41-.05-.42,.74-.82,1.45-1.24,2.18Zm13.12-10.69c.7-.27,1.36-.52,2.02-.79,.1-.04,.2-.2,.21-.31,.05-.81,.09-1.63,.11-2.44,.03-1.21-.44-2.2-1.32-3.01-.37-.35-.76-.68-1.14-1.01-.94-.83-1.87-1.66-2.82-2.47-.12-.1-.37-.18-.49-.13-.13,.06-.25,.3-.23,.45,.03,.29,.09,.61,.25,.85,.59,.9,1.24,1.76,1.85,2.64,.77,1.13,1.29,2.37,1.43,3.74,.08,.81,.09,1.62,.13,2.49Zm-17.17,.01c0-.42,0-.78,0-1.14-.04-1.99,.56-3.77,1.71-5.38,.56-.78,1.13-1.55,1.65-2.36,.16-.25,.23-.59,.26-.89,.01-.14-.12-.37-.26-.44-.1-.05-.34,.03-.45,.13-1.36,1.18-2.72,2.37-4.05,3.58-.85,.77-1.27,1.76-1.24,2.91,.02,.81,.06,1.63,.11,2.44,0,.11,.08,.27,.16,.31,.68,.28,1.37,.54,2.11,.83Zm17.42,11.15c-.45-2.14-.86-4.11-1.29-6.17-.91,1.24-1.96,2.21-3.27,3.01,.42,.68,.82,1.33,1.24,1.98,.07,.1,.18,.21,.29,.24,.97,.31,1.95,.61,3.03,.94Zm-17.7-.06c.93-.27,1.76-.51,2.59-.77,.16-.05,.35-.12,.45-.24,.55-.66,.98-1.39,1.23-2.08-1.06-.99-2.05-1.93-3.03-2.85-.39,1.88-.8,3.84-1.24,5.95Z"/>
    <path d="M716.71,236.56c-.24,.29-.39,.52-.58,.69-.61,.54-1.54,.34-1.85-.42-.28-.7-.51-1.42-.73-2.14-.13-.41,.08-.75,.46-.85,.34-.1,.67,.08,.81,.48,.2,.57,.39,1.14,.71,1.8,.14-.18,.26-.38,.43-.54,.67-.64,1.61-.45,1.95,.4,.29,.73,.54,1.47,.8,2.21,.12,.35-.05,.7-.37,.82-.34,.13-.71-.01-.86-.38-.25-.63-.47-1.27-.76-2.07Z"/>
    <path d="M751.03,236.57c-.26,.73-.47,1.31-.68,1.89-.18,.5-.53,.69-.92,.54-.37-.14-.49-.51-.33-.99,.23-.64,.46-1.28,.69-1.92,.37-.98,1.32-1.2,2.07-.46,.14,.14,.22,.34,.33,.51l.16-.12c.19-.54,.37-1.09,.56-1.63,.17-.49,.48-.68,.87-.55,.4,.14,.53,.47,.37,.96-.2,.61-.4,1.21-.61,1.81-.36,1.01-1.32,1.22-2.09,.47-.13-.13-.24-.29-.43-.52Z"/>
    <path d="M715.77,254.82c-.53,0-.84-.25-.84-.67,0-.42,.31-.66,.85-.66,.54,0,.86,.24,.87,.64,.01,.42-.33,.69-.88,.68Z"/>
    <path d="M751.35,255.7c-.52,0-.85-.26-.85-.67,0-.41,.32-.66,.85-.66,.54,0,.85,.23,.86,.64,.01,.43-.31,.69-.87,.68Z"/>
    <path d="M753.39,256.49c0,.52-.22,.84-.61,.85-.37,.01-.6-.19-.7-.54-.14-.53,.05-1.01,.45-1.14,.48-.16,.86,.2,.86,.83Z"/>
    <path d="M713.76,255.61c0-.52,.21-.84,.6-.86,.37-.02,.61,.18,.7,.52,.15,.52-.04,1-.44,1.15-.48,.18-.86-.18-.86-.81Z"/>
    <path d="M713.04,254.82c-.54,0-.83-.23-.83-.66,0-.44,.28-.66,.83-.66,.57,0,.87,.24,.86,.68-.01,.42-.32,.65-.86,.65Z"/>
    <path d="M754.1,254.37c.55,0,.83,.22,.84,.66,0,.44-.3,.67-.87,.67-.52,0-.83-.26-.82-.68,0-.43,.3-.65,.85-.64Z"/>
    <path d="M713.76,252.7c0-.56,.21-.84,.65-.84,.43,0,.67,.29,.68,.82,0,.55-.25,.87-.68,.87-.43,0-.65-.3-.65-.85Z"/>
    <path d="M753.39,253.55c0,.57-.23,.88-.67,.87-.42,0-.65-.32-.65-.85,0-.54,.23-.83,.66-.84,.44,0,.66,.27,.67,.82Z"/>
  </g>
  <g>
    <path d="M763.2,377.88c3.62,0,7.12,0,10.63,0,1.2,0,2.17,.75,2.53,1.89,.33,1.07-.05,2.29-1.04,2.9-.47,.29-1.07,.47-1.62,.48-3.17,.04-6.35,.02-9.52,.02-.3,0-.59,0-.97,0,0,.37,0,.67,0,.96,0,3.17,0,6.35,0,9.52,0,1.61-1.12,2.77-2.65,2.77-1.52,0-2.64-1.16-2.64-2.78,0-3.45,0-6.9,0-10.47-.32,0-.61,0-.9,0-3.17,0-6.35,0-9.52,0-1.67,0-2.84-1.11-2.83-2.67,0-1.53,1.16-2.61,2.8-2.62,3.45,0,6.89,0,10.45,0,0-.34,0-.63,0-.92,0-3.17,0-6.35,0-9.52,0-1.64,1.08-2.79,2.61-2.81,1.57-.01,2.68,1.15,2.69,2.81,0,3.15,0,6.29,0,9.44,0,.3,0,.6,0,1Z"/>
    <path d="M699.24,335.63c0-3.24,0-6.47,0-9.71,0-2.53,1.37-3.9,3.88-3.91,6.51,0,13.02,0,19.53,0,2.51,0,3.91,1.39,3.91,3.88,0,6.51,0,13.02,0,19.53,0,2.52-1.38,3.91-3.89,3.91-6.51,0-13.02,0-19.53,0-2.52,0-3.9-1.39-3.91-3.89,0-3.27,0-6.55,0-9.82Z"/>
    <path d="M760.62,349.34c-3.2,0-6.4,0-9.61,0-2.58,0-3.95-1.37-3.95-3.95,0-6.47,0-12.95,0-19.42,0-2.59,1.36-3.95,3.95-3.95,6.48,0,12.95,0,19.43,0,2.58,0,3.95,1.37,3.95,3.95,0,6.47,0,12.95,0,19.42,0,2.59-1.36,3.95-3.95,3.95-3.27,0-6.55,0-9.82,0Z"/>
    <path d="M712.86,369.82c3.27,0,6.55,0,9.82,0,2.5,0,3.89,1.39,3.89,3.91,0,6.51,0,13.02,0,19.53,0,2.51-1.38,3.89-3.91,3.89-6.51,0-13.02,0-19.53,0-2.5,0-3.89-1.4-3.89-3.91,0-6.51,0-13.02,0-19.53,0-2.52,1.38-3.88,3.9-3.89,3.24,0,6.48,0,9.71,0Z"/>
  </g>
</svg>